# Blender v3.1.2 OBJ File: ''
# www.blender.org
mtllib hold_color.mtl
o COLOR_ME.008
v 0.385951 0.537686 -0.078390
v 0.393590 0.478225 -0.038219
v 0.475058 0.495337 -0.035985
v 0.436141 0.557162 -0.072428
v 0.479927 0.581981 -0.157749
v 0.546040 0.507262 -0.160534
v 0.505211 0.496976 -0.234074
v 0.449642 0.573788 -0.202494
v 0.183141 0.870910 0.008923
v 0.200837 0.834782 0.060959
v 0.289604 0.835152 0.015707
v 0.265807 0.859183 -0.038810
v 0.238591 0.832994 -0.084108
v 0.181117 0.837734 -0.041322
v 0.224745 0.733357 0.068780
v 0.218599 0.786073 0.098412
v 0.304824 0.698568 -0.201747
v 0.305798 0.651184 -0.168092
v 0.231071 0.722510 -0.063823
v 0.223237 0.777263 -0.096650
v 0.374481 0.642451 -0.094853
v 0.476324 0.575860 -0.103564
v 0.404727 0.685863 -0.095218
v 0.297438 0.780400 0.048533
v 0.205025 0.736310 -0.033503
v 0.186519 0.791022 -0.067813
v 0.355666 0.529493 -0.123135
v 0.333487 0.626182 -0.123741
v 0.376064 0.758249 -0.173224
v 0.403753 0.733246 -0.128873
v 0.424716 0.480159 -0.232366
v 0.399453 0.554313 -0.208457
v 0.544794 0.508910 -0.079668
v 0.354008 0.466290 -0.192625
v 0.353733 0.468234 -0.107817
v 0.359269 0.535614 -0.177321
v 0.254868 0.698479 -0.009306
v 0.221978 0.706186 0.021677
v 0.282084 0.724668 0.035991
v 0.335070 0.741980 -0.202112
vt 0.625000 0.973571
vt 0.625000 1.000000
vt 0.500000 1.000000
vt 0.500000 0.973570
vt 0.151430 0.625000
vt 0.125000 0.625000
vt 0.125000 0.500000
vt 0.151430 0.500000
vt 0.359763 0.484763
vt 0.394485 0.625000
vt 0.272385 0.625000
vt 0.272385 0.500000
vt 0.500000 0.397385
vt 0.500000 0.519485
vt 0.375000 0.397385
vt 0.500000 0.730515
vt 0.359763 0.765237
vt 0.800159 0.500000
vt 0.800160 0.625000
vt 0.727615 0.625000
vt 0.727615 0.500000
vt 0.500000 0.925159
vt 0.375000 0.973571
vt 0.375000 0.925160
vt 0.272385 0.750000
vt 0.605515 0.625000
vt 0.640237 0.484763
vt 0.848571 0.625000
vt 0.848570 0.750000
vt 0.800159 0.750000
vt 0.199841 0.500000
vt 0.199841 0.625000
vt 0.375000 0.276430
vt 0.375000 0.250000
vt 0.500000 0.250000
vt 0.500000 0.276430
vt 0.375000 1.000000
vt 0.875000 0.500000
vt 0.875000 0.625000
vt 0.848570 0.500000
vt 0.625000 0.250000
vt 0.625000 0.276430
vt 0.875000 0.750000
vt 0.750000 0.500000
vt 0.375000 0.375000
vt 0.250000 0.750000
vt 0.625000 0.875000
vt 0.727615 0.750000
vt 0.640237 0.765237
vt 0.625000 0.852615
vt 0.500000 0.852615
vt 0.199841 0.750000
vt 0.625000 0.324841
vt 0.625000 0.397385
vt 0.500000 0.324841
vt 0.625000 0.925160
vt 0.375000 0.852615
vt 0.375000 0.324841
vt 0.125000 0.750000
vt 0.151430 0.750000
vn -0.1851 0.4731 0.8614
vn 0.6304 0.6140 -0.4749
vn 0.2705 0.8796 0.3913
vn -0.2034 0.8583 -0.4711
vn -0.9606 -0.2126 0.1790
vn -0.8542 -0.3333 -0.3989
vn 0.2271 0.2233 0.9479
vn 0.4162 0.5791 0.7010
vn -0.7027 -0.4871 -0.5186
vn -0.8390 -0.1893 0.5102
vn 0.7921 0.4286 -0.4346
vn -0.0573 0.3173 -0.9466
vn 0.3179 0.6066 0.7287
vn -0.9981 0.0550 -0.0262
vn -0.5626 0.1441 -0.8141
vn -0.8504 0.1860 0.4921
vn 0.2049 -0.9785 0.0231
vn -0.5229 -0.8253 -0.2132
vn 0.1614 -0.8764 0.4537
vn 0.8433 0.3424 0.4143
vn -0.5791 0.3564 -0.7333
vn -0.3895 0.1012 0.9154
vn 0.4573 -0.3558 0.8151
vn 0.0895 0.8267 -0.5554
vn -0.5234 0.3473 -0.7781
vn 0.7205 0.6917 0.0488
vn -0.9606 -0.2126 0.1791
vn 0.2827 0.1947 -0.9393
vn -0.0305 -0.8552 0.5175
vn -0.2923 -0.1478 -0.9448
vn 0.8496 0.4388 0.2927
vn 0.6782 0.7348 0.0113
vn -0.6862 -0.7274 -0.0034
vn 0.6213 -0.3706 0.6904
vn -0.8835 -0.3878 -0.2627
usemtl None.010
s off
f 1/1/1 2/2/1 3/3/1 4/4/1
f 5/5/2 6/6/2 7/7/2 8/8/2
f 9/9/3 10/10/3 11/11/3 12/12/3
f 13/13/4 14/14/4 9/9/4 12/15/4
f 15/16/5 16/17/5 10/10/5
f 17/18/6 18/19/6 19/20/6 20/21/6
f 21/22/7 4/4/7 22/23/7 23/24/7
f 11/11/8 10/10/8 16/17/8 24/25/8
f 20/21/9 19/20/9 25/26/9 26/27/9
f 18/19/10 27/28/10 1/29/10 28/30/10
f 29/31/11 30/32/11 5/5/11 8/8/11
f 8/33/12 7/34/12 31/35/12 32/36/12
f 4/4/13 3/3/13 33/37/13 22/23/13
f 34/38/14 35/39/14 27/28/14 36/40/14
f 32/36/15 31/35/15 34/41/15 36/42/15
f 27/28/16 35/39/16 2/43/16 1/29/16
f 35/44/17 34/41/17 31/45/17 7/7/17 6/46/17 33/37/17 3/47/17 2/43/17
f 25/26/18 19/20/18 37/48/18 38/49/18
f 38/49/19 37/50/19 39/51/19 15/16/19
f 30/32/20 11/11/20 24/25/20 23/52/20
f 17/53/21 20/54/21 13/13/21 40/55/21
f 28/56/22 1/1/22 4/4/22 21/22/22
f 15/16/23 39/51/23 24/57/23 16/17/23
f 40/55/24 13/13/24 12/15/24 29/58/24
f 20/54/25 26/27/25 14/14/25 13/13/25
f 33/59/26 6/6/26 5/5/26 22/60/26
f 9/9/27 14/14/27 10/10/27
f 14/14/27 26/27/27 25/26/27
f 10/10/27 14/14/27 25/26/27
f 25/26/27 38/49/27 15/16/27
f 10/10/27 25/26/27 15/16/27
f 32/36/28 40/55/28 29/58/28 8/33/28
f 37/50/29 28/56/29 21/22/29 39/51/29
f 36/42/30 17/53/30 40/55/30 32/36/30
f 5/5/31 30/32/31 23/52/31 22/60/31
f 12/12/32 11/11/32 30/32/32 29/31/32
f 19/20/33 18/19/33 28/30/33 37/48/33
f 39/51/34 21/22/34 23/24/34 24/57/34
f 36/40/35 27/28/35 18/19/35 17/18/35
o COLOR_ME.002_COLOR_ME.007
v -0.318708 0.504444 0.184574
v -0.368313 0.542036 0.191642
v -0.373509 0.477412 0.256808
v -0.292301 0.464871 0.228582
v -0.417919 0.558252 0.156999
v -0.454635 0.462945 0.229569
v -0.322764 0.711155 -0.048741
v -0.348484 0.749063 -0.004594
v -0.226633 0.882158 -0.081945
v -0.227668 0.831298 -0.126099
v -0.353007 0.754794 0.058260
v -0.227668 0.887771 -0.015901
v -0.143267 0.880239 0.009964
v -0.137373 0.868956 -0.038588
v -0.131388 0.831812 -0.083596
v -0.147401 0.834489 0.052961
v -0.147396 0.776793 0.062537
v -0.142545 0.739345 0.027283
v -0.135516 0.728366 -0.031024
v -0.132517 0.773812 -0.064265
v -0.222613 0.718650 0.001847
v -0.224744 0.713029 -0.065490
v -0.224744 0.769502 0.044708
v -0.296486 0.668992 0.108148
v -0.270767 0.631086 0.064001
v -0.266243 0.625355 0.001146
v -0.224623 0.761370 -0.116217
v -0.288833 0.660073 -0.043860
v -0.224623 0.839437 0.036119
v -0.330417 0.720075 0.103266
v -0.414106 0.500308 0.046247
v -0.368313 0.463657 0.038695
v -0.373509 0.374354 0.055707
v -0.443077 0.389465 0.082832
v -0.322520 0.448384 0.072856
v -0.303859 0.388670 0.083240
v -0.433900 0.539193 0.096543
v -0.477268 0.425317 0.156547
v -0.269749 0.426449 0.155967
v -0.302727 0.466502 0.133795
vt 0.875000 0.750000
vt 0.875000 0.625000
vt 0.875000 0.625000
vt 0.875000 0.750000
vt 0.875000 0.500000
vt 0.875000 0.500000
vt 0.375000 0.291667
vt 0.500000 0.291667
vt 0.500000 0.378472
vt 0.369792 0.375000
vt 0.625000 0.291667
vt 0.630208 0.375000
vt 0.666667 0.458333
vt 0.500000 0.493056
vt 0.333333 0.458333
vt 0.631945 0.625000
vt 0.666667 0.791667
vt 0.500000 0.756944
vt 0.333333 0.791667
vt 0.368056 0.625000
vt 0.500000 0.871528
vt 0.369792 0.875000
vt 0.630208 0.875000
vt 0.625000 0.958333
vt 0.500000 0.958333
vt 0.375000 0.958333
vt 0.166667 0.500000
vt 0.250000 0.494792
vt 0.253472 0.625000
vt 0.166667 0.625000
vt 0.250000 0.755208
vt 0.166667 0.750000
vt 0.755208 0.494792
vt 0.751736 0.625000
vt 0.875000 0.500000
vt 0.875000 0.625000
vt 0.875000 0.750000
vt 0.755208 0.755208
vt 0.125000 0.500000
vt 0.125000 0.625000
vt 0.125000 0.625000
vt 0.125000 0.500000
vt 0.125000 0.750000
vt 0.125000 0.750000
vt 0.625000 0.250000
vt 0.500000 0.250000
vt 0.500000 0.244792
vt 0.625000 0.244792
vt 0.375000 0.250000
vt 0.375000 0.244792
vt 0.375000 1.000000
vt 0.500000 1.000000
vt 0.375000 1.000000
vt 0.500000 1.000000
vt 0.625000 1.000000
vt 0.625000 1.000000
vn 0.4232 0.6951 0.5812
vn -0.3120 0.6656 0.6779
vn -0.7715 0.3278 -0.5453
vn -0.7546 0.6500 -0.0897
vn 0.1699 0.9764 -0.1337
vn 0.3467 0.6771 -0.6491
vn 0.9931 0.0194 0.1161
vn 0.1602 -0.9778 0.1354
vn -0.0861 -0.6639 0.7428
vn 0.8462 -0.2133 0.4884
vn 0.9044 -0.4233 0.0535
vn -0.4611 -0.2449 -0.8529
vn 0.4504 -0.1924 -0.8719
vn 0.4141 -0.6148 -0.6713
vn 0.3324 -0.6724 -0.6614
vn -0.1297 0.7053 0.6969
vn -0.3292 0.6726 0.6627
vn 0.3968 0.2103 0.8935
vn -0.2188 0.1377 0.9660
vn -0.3578 -0.1841 -0.9155
vn 0.4672 -0.1188 -0.8761
vn -0.9095 0.4057 0.0908
vn -0.8904 0.0953 -0.4451
vn 0.0052 -0.8899 0.4561
vn 0.8413 0.2858 -0.4588
vn 0.8303 0.5512 -0.0818
vn -0.8523 0.1208 -0.5090
vn 0.9593 -0.2749 -0.0654
vn 0.4916 -0.4792 -0.7272
vn -0.9352 0.3537 0.0158
vn -0.4628 0.4945 0.7357
vn -0.3197 -0.2628 -0.9104
vn 0.3872 0.3436 0.8556
vn 0.9214 0.0208 0.3882
usemtl None.010
s off
f 41/61/36 42/62/36 43/63/36 44/64/36
f 42/62/37 45/65/37 46/66/37 43/63/37
f 47/67/38 48/68/38 49/69/38 50/70/38
f 48/68/39 51/71/39 52/72/39 49/69/39
f 49/69/40 52/72/40 53/73/40 54/74/40
f 50/70/41 49/69/41 54/74/41 55/75/41
f 54/74/42 53/73/42 56/76/42 57/77/42 58/78/42 59/79/42 60/80/42 55/75/42
f 59/79/43 58/78/43 61/81/43 62/82/43
f 58/78/44 57/77/44 63/83/44 61/81/44
f 61/81/45 63/83/45 64/84/45 65/85/45
f 62/82/46 61/81/46 65/85/46 66/86/46
f 47/87/47 50/88/47 67/89/47 68/90/47
f 50/88/48 55/75/48 60/80/48 67/89/48
f 67/89/49 60/80/49 59/79/49 62/91/49
f 68/90/50 67/89/50 62/91/50 66/92/50
f 53/73/51 52/93/51 69/94/51 56/76/51
f 52/93/52 51/95/52 70/96/52 69/94/52
f 69/94/53 70/96/53 64/97/53 63/98/53
f 56/76/54 69/94/54 63/98/54 57/77/54
f 71/99/55 72/100/55 73/101/55 74/102/55
f 72/100/56 75/103/56 76/104/56 73/101/56
f 45/105/57 77/106/57 78/107/57 46/108/57
f 77/106/58 71/109/58 74/110/58 78/107/58
f 74/102/59 73/101/59 76/111/59 79/112/59 44/64/59 43/63/59 46/108/59 78/107/59
f 75/113/60 80/114/60 79/112/60 76/111/60
f 80/114/61 41/115/61 44/116/61 79/112/61
f 71/109/62 77/106/62 48/68/62 47/67/62
f 65/85/63 80/114/63 75/113/63 66/86/63
f 66/92/64 75/103/64 72/100/64 68/90/64
f 48/68/65 77/106/65 45/105/65 51/71/65
f 51/95/66 45/65/66 42/62/66 70/96/66
f 68/90/67 72/100/67 71/99/67 47/87/67
f 70/96/68 42/62/68 41/61/68 64/97/68
f 41/115/69 80/114/69 65/85/69 64/84/69
