# Blender v3.2.0 OBJ File: ''
# www.blender.org
mtllib item.mtl
o Cube_Cube.001
v -0.042908 0.126467 -0.229996
v -0.020016 0.116679 -0.232030
v -0.026469 0.098332 -0.216352
v -0.049360 0.108120 -0.214318
v 0.066844 0.267441 0.019964
v 0.043953 0.277231 0.021998
v 0.073296 0.285788 0.004288
v 0.050405 0.295577 0.006322
v 0.041777 0.291247 0.053527
v 0.053423 0.324363 0.025230
v 0.094742 0.306693 0.021558
v 0.083095 0.273577 0.049855
v 0.122965 0.373964 0.126283
v 0.115982 0.354105 0.143251
v 0.098188 0.384559 0.128485
v 0.091204 0.364700 0.145452
vt 0.125000 0.500000
vt 0.375000 0.500000
vt 0.375000 0.750000
vt 0.125000 0.750000
vt 0.582584 0.750000
vt 0.582584 1.000000
vt 0.375000 1.000000
vt 0.582584 0.500000
vt 0.375000 0.250000
vt 0.582584 0.250000
vt 0.375000 0.000000
vt 0.582584 0.000000
vt 0.625000 0.000000
vt 0.625000 0.250000
vt 0.625000 0.500000
vt 0.625000 0.750000
vt 0.625000 1.000000
vt 0.625000 0.500000
vt 0.625000 0.750000
vt 0.625000 0.250000
vt 0.625000 0.000000
vt 0.625000 1.000000
vn -0.3057 -0.5541 -0.7743
vn -0.2583 -0.7345 0.6276
vn 0.9164 -0.3919 -0.0814
vn 0.2583 0.7345 -0.6276
vn -0.9164 0.3919 0.0814
vn -0.9660 0.2049 -0.1578
vn 0.1531 0.5313 -0.8333
vn 0.7801 -0.5417 -0.3129
vn -0.3390 -0.8681 0.3625
vn 0.9358 -0.3516 -0.0263
vn 0.3057 0.5541 0.7743
vn -0.8924 0.4302 0.1361
vn -0.2360 -0.6933 0.6809
vn 0.2793 0.7719 -0.5711
usemtl GOLD.003
s 1
f 1/1/1 2/2/1 3/3/1 4/4/1
f 3/3/2 5/5/2 6/6/2 4/7/2
f 2/2/3 7/8/3 5/5/3 3/3/3
f 1/9/4 8/10/4 7/8/4 2/2/4
f 4/11/5 6/12/5 8/10/5 1/9/5
usemtl diamond.005
f 6/12/6 9/13/6 10/14/6 8/10/6
f 8/10/7 10/14/7 11/15/7 7/8/7
f 7/8/8 11/15/8 12/16/8 5/5/8
f 5/5/9 12/16/9 9/17/9 6/6/9
f 12/16/10 11/15/10 13/18/10 14/19/10
f 13/18/11 15/20/11 16/21/11 14/19/11
f 10/14/12 9/13/12 16/21/12 15/20/12
f 9/17/13 12/16/13 14/19/13 16/22/13
f 11/15/14 10/14/14 15/20/14 13/18/14
