# Blender v3.1.2 OBJ File: ''
# www.blender.org
mtllib shoot.mtl
o WIRST.001_WIRST.001
v -0.181599 0.704252 0.534868
v -0.174931 0.727359 0.578103
v -0.238844 0.743900 0.569055
v -0.230198 0.714517 0.515392
v -0.173054 0.772249 0.598816
v -0.219780 0.797415 0.593353
v -0.255174 0.819180 0.559886
v -0.275046 0.784574 0.530643
v -0.263719 0.751182 0.495938
v -0.257198 0.827352 0.482770
v -0.243524 0.775112 0.452740
v -0.233106 0.858010 0.530702
v -0.194916 0.871656 0.496035
v -0.201584 0.848549 0.452800
v -0.203460 0.803658 0.432088
v -0.137671 0.832008 0.461848
v -0.156735 0.778492 0.437550
v -0.146318 0.861390 0.515511
v -0.112796 0.824725 0.534965
v -0.101468 0.791334 0.500260
v -0.121341 0.756728 0.471017
v -0.119317 0.748555 0.548133
v -0.143409 0.717897 0.500200
v -0.132991 0.800795 0.578163
v -0.195431 0.730870 0.461766
v -0.181084 0.845038 0.569136
vt 0.375000 0.000000
vt 0.500000 0.000000
vt 0.500000 0.125000
vt 0.375000 0.125000
vt 0.625000 0.000000
vt 0.625000 0.125000
vt 0.625000 0.250000
vt 0.500000 0.250000
vt 0.375000 0.250000
vt 0.500000 0.373264
vt 0.369792 0.369792
vt 0.630208 0.369792
vt 0.666667 0.458333
vt 0.500000 0.493056
vt 0.333333 0.458333
vt 0.500000 0.625000
vt 0.368056 0.625000
vt 0.631945 0.625000
vt 0.666667 0.791667
vt 0.500000 0.756944
vt 0.333333 0.791667
vt 0.500000 0.876736
vt 0.369792 0.880208
vt 0.630208 0.880208
vt 0.625000 1.000000
vt 0.500000 1.000000
vt 0.375000 1.000000
vt 0.125000 0.500000
vt 0.244792 0.494792
vt 0.248264 0.625000
vt 0.125000 0.625000
vt 0.244792 0.755208
vt 0.125000 0.750000
vt 0.755208 0.494792
vt 0.751736 0.625000
vt 0.875000 0.500000
vt 0.875000 0.625000
vt 0.875000 0.750000
vt 0.755208 0.755208
vn -0.3130 -0.8378 0.4474
vn -0.2527 -0.3575 0.8991
vn -0.7398 -0.0791 0.6682
vn -0.8001 -0.5594 0.2165
vn -0.9263 0.0142 -0.3765
vn -0.8659 0.4945 0.0751
vn -0.5085 0.8058 -0.3036
vn -0.5688 0.3255 -0.7553
vn 0.2527 0.3575 -0.8991
vn 0.3130 0.8378 -0.4474
vn 0.8001 0.5594 -0.2165
vn 0.7398 0.0791 -0.6682
vn 0.8659 -0.4945 -0.0751
vn 0.9263 -0.0142 0.3765
vn 0.5688 -0.3255 0.7553
vn 0.5085 -0.8058 0.3036
vn -0.4799 -0.6794 -0.5551
vn -0.1443 -0.3872 -0.9106
vn 0.3130 -0.6486 -0.6938
vn -0.0226 -0.9408 -0.3383
vn 0.0226 0.9408 0.3383
vn -0.3130 0.6486 0.6938
vn 0.1443 0.3872 0.9106
vn 0.4799 0.6794 0.5551
usemtl Material.002
s off
f 1/1/1 2/2/1 3/3/1 4/4/1
f 2/2/2 5/5/2 6/6/2 3/3/2
f 3/3/3 6/6/3 7/7/3 8/8/3
f 4/4/4 3/3/4 8/8/4 9/9/4
f 9/9/5 8/8/5 10/10/5 11/11/5
f 8/8/6 7/7/6 12/12/6 10/10/6
f 10/10/7 12/12/7 13/13/7 14/14/7
f 11/11/8 10/10/8 14/14/8 15/15/8
f 15/15/9 14/14/9 16/16/9 17/17/9
f 14/14/10 13/13/10 18/18/10 16/16/10
f 16/16/11 18/18/11 19/19/11 20/20/11
f 17/17/12 16/16/12 20/20/12 21/21/12
f 21/21/13 20/20/13 22/22/13 23/23/13
f 20/20/14 19/19/14 24/24/14 22/22/14
f 22/22/15 24/24/15 5/25/15 2/26/15
f 23/23/16 22/22/16 2/26/16 1/27/16
f 9/28/17 11/29/17 25/30/17 4/31/17
f 11/29/18 15/15/18 17/17/18 25/30/18
f 25/30/19 17/17/19 21/21/19 23/32/19
f 4/31/20 25/30/20 23/32/20 1/33/20
f 13/13/21 12/34/21 26/35/21 18/18/21
f 12/34/22 7/36/22 6/37/22 26/35/22
f 26/35/23 6/37/23 5/38/23 24/39/23
f 18/18/24 26/35/24 24/39/24 19/19/24
o WIRST_WIRST.001
v 0.420502 0.417613 -0.262876
v 0.404281 0.436050 -0.223965
v 0.368886 0.467782 -0.263405
v 0.400518 0.439787 -0.302328
v 0.402263 0.475323 -0.200075
v 0.378282 0.510143 -0.225767
v 0.377850 0.539163 -0.265831
v 0.374519 0.513881 -0.304130
v 0.396089 0.481453 -0.328631
v 0.423290 0.547602 -0.320954
v 0.440021 0.497745 -0.344115
v 0.417786 0.568101 -0.267553
v 0.467069 0.570403 -0.268627
v 0.483288 0.551965 -0.307538
v 0.485308 0.512693 -0.331427
v 0.518685 0.520234 -0.268098
v 0.509289 0.477872 -0.305736
v 0.487052 0.548228 -0.229174
v 0.491482 0.506562 -0.202870
v 0.513052 0.474135 -0.227372
v 0.509721 0.448852 -0.265670
v 0.464280 0.440414 -0.210549
v 0.469785 0.419915 -0.263949
v 0.447549 0.490271 -0.187387
v 0.459097 0.445560 -0.318472
v 0.428473 0.542456 -0.213030
vt 0.375000 0.000000
vt 0.500000 0.000000
vt 0.500000 0.125000
vt 0.375000 0.125000
vt 0.625000 0.000000
vt 0.625000 0.125000
vt 0.625000 0.250000
vt 0.500000 0.250000
vt 0.375000 0.250000
vt 0.500000 0.373264
vt 0.369792 0.369792
vt 0.630208 0.369792
vt 0.666667 0.458333
vt 0.500000 0.493056
vt 0.333333 0.458333
vt 0.500000 0.625000
vt 0.368056 0.625000
vt 0.631945 0.625000
vt 0.666667 0.791667
vt 0.500000 0.756944
vt 0.333333 0.791667
vt 0.500000 0.876736
vt 0.369792 0.880208
vt 0.630208 0.880208
vt 0.625000 1.000000
vt 0.500000 1.000000
vt 0.375000 1.000000
vt 0.125000 0.500000
vt 0.244792 0.494792
vt 0.248264 0.625000
vt 0.125000 0.625000
vt 0.244792 0.755208
vt 0.125000 0.750000
vt 0.755208 0.494792
vt 0.751736 0.625000
vt 0.875000 0.500000
vt 0.875000 0.625000
vt 0.875000 0.750000
vt 0.755208 0.755208
vn -0.6970 -0.7171 -0.0007
vn -0.8347 -0.2814 0.4734
vn -0.9906 0.1262 0.0536
vn -0.8528 -0.3095 -0.4206
vn -0.4481 0.2827 -0.8481
vn -0.5861 0.7193 -0.3730
vn -0.0120 0.9203 -0.3910
vn 0.1260 0.4837 -0.8661
vn 0.8347 0.2814 -0.4734
vn 0.6970 0.7171 0.0007
vn 0.8528 0.3095 0.4205
vn 0.9906 -0.1262 -0.0536
vn 0.5861 -0.7193 0.3730
vn 0.4481 -0.2827 0.8481
vn -0.1260 -0.4837 0.8661
vn 0.0120 -0.9203 0.3910
vn -0.1524 -0.5076 -0.8480
vn 0.3879 -0.3184 -0.8650
vn 0.5349 -0.7028 -0.4690
vn -0.0054 -0.8919 -0.4521
vn 0.0054 0.8919 0.4521
vn -0.5349 0.7028 0.4690
vn -0.3879 0.3184 0.8650
vn 0.1524 0.5076 0.8480
usemtl Material.002
s off
f 27/40/25 28/41/25 29/42/25 30/43/25
f 28/41/26 31/44/26 32/45/26 29/42/26
f 29/42/27 32/45/27 33/46/27 34/47/27
f 30/43/28 29/42/28 34/47/28 35/48/28
f 35/48/29 34/47/29 36/49/29 37/50/29
f 34/47/30 33/46/30 38/51/30 36/49/30
f 36/49/31 38/51/31 39/52/31 40/53/31
f 37/50/32 36/49/32 40/53/32 41/54/32
f 41/54/33 40/53/33 42/55/33 43/56/33
f 40/53/34 39/52/34 44/57/34 42/55/34
f 42/55/35 44/57/35 45/58/35 46/59/35
f 43/56/36 42/55/36 46/59/36 47/60/36
f 47/60/37 46/59/37 48/61/37 49/62/37
f 46/59/38 45/58/38 50/63/38 48/61/38
f 48/61/39 50/63/39 31/64/39 28/65/39
f 49/62/40 48/61/40 28/65/40 27/66/40
f 35/67/41 37/68/41 51/69/41 30/70/41
f 37/68/42 41/54/42 43/56/42 51/69/42
f 51/69/43 43/56/43 47/60/43 49/71/43
f 30/70/44 51/69/44 49/71/44 27/72/44
f 39/52/45 38/73/45 52/74/45 44/57/45
f 38/73/46 33/75/46 32/76/46 52/74/46
f 52/74/47 32/76/47 31/77/47 50/78/47
f 44/57/48 52/74/48 50/78/48 45/58/48
o Cube_Cube.002
v -0.223958 0.740707 0.404201
v -0.206998 0.750857 0.388927
v -0.191767 0.731473 0.392957
v -0.208727 0.721323 0.408232
v -0.066951 0.878701 0.629381
v -0.083912 0.868551 0.644656
v -0.082182 0.898085 0.625350
v -0.099142 0.887935 0.640625
v -0.071720 0.871864 0.676836
v -0.099212 0.906853 0.669561
v -0.068599 0.925174 0.641991
v -0.041108 0.890185 0.649266
v -0.017291 0.975761 0.747335
v -0.000806 0.954779 0.751698
v -0.035649 0.964775 0.763869
v -0.019163 0.943793 0.768231
vt 0.125000 0.500000
vt 0.375000 0.500000
vt 0.375000 0.750000
vt 0.125000 0.750000
vt 0.582584 0.750000
vt 0.582584 1.000000
vt 0.375000 1.000000
vt 0.582584 0.500000
vt 0.375000 0.250000
vt 0.582584 0.250000
vt 0.375000 0.000000
vt 0.582584 0.000000
vt 0.625000 0.000000
vt 0.625000 0.250000
vt 0.625000 0.500000
vt 0.625000 0.750000
vt 0.625000 1.000000
vt 0.625000 0.500000
vt 0.625000 0.750000
vt 0.625000 0.250000
vt 0.625000 0.000000
vt 0.625000 1.000000
vn -0.4089 -0.4824 -0.7746
vn 0.6097 -0.7760 0.1614
vn 0.6790 0.4063 -0.6115
vn -0.6097 0.7760 -0.1613
vn -0.6790 -0.4063 0.6115
vn -0.7711 -0.5337 0.3471
vn -0.7052 0.5927 -0.3892
vn 0.5225 0.2405 -0.8180
vn 0.4566 -0.8859 -0.0818
vn 0.7063 0.4395 -0.5550
vn 0.4090 0.4824 0.7746
vn -0.6483 -0.3711 0.6649
vn 0.6372 -0.7399 0.2159
vn -0.5792 0.8083 -0.1060
usemtl GOLD.001
s off
f 53/79/49 54/80/49 55/81/49 56/82/49
f 55/81/50 57/83/50 58/84/50 56/85/50
f 54/80/51 59/86/51 57/83/51 55/81/51
f 53/87/52 60/88/52 59/86/52 54/80/52
f 56/89/53 58/90/53 60/88/53 53/87/53
usemtl diamond.001
f 58/90/54 61/91/54 62/92/54 60/88/54
f 60/88/55 62/92/55 63/93/55 59/86/55
f 59/86/56 63/93/56 64/94/56 57/83/56
f 57/83/57 64/94/57 61/95/57 58/84/57
f 64/94/58 63/93/58 65/96/58 66/97/58
f 65/96/59 67/98/59 68/99/59 66/97/59
f 62/92/60 61/91/60 68/99/60 67/98/60
f 61/95/61 64/94/61 66/97/61 68/100/61
f 63/93/62 62/92/62 67/98/62 65/96/62
