# Blender v3.1.2 OBJ File: ''
# www.blender.org
mtllib red_arrows.mtl
o Cube.222_Cube.002
v -0.237109 0.340467 -0.231318
v 0.349092 0.312065 -0.086197
v 0.349005 0.308347 -0.086575
v -0.237196 0.336750 -0.231696
v 0.348182 0.311720 -0.082589
v 0.348095 0.308002 -0.082966
v -0.238019 0.340122 -0.227710
v -0.238106 0.336405 -0.228087
vt 0.375000 0.000000
vt 0.375000 0.250000
vt 0.625000 0.250000
vt 0.625000 0.000000
vt 0.375000 0.500000
vt 0.625000 0.500000
vt 0.375000 0.750000
vt 0.625000 0.750000
vt 0.375000 1.000000
vt 0.625000 1.000000
vt 0.125000 0.500000
vt 0.125000 0.750000
vt 0.875000 0.750000
vt 0.875000 0.500000
vn 0.2435 0.0925 -0.9655
vn 0.9696 -0.0470 0.2400
vn -0.2435 -0.0922 0.9655
vn -0.9696 0.0471 -0.2400
vn 0.0232 0.9946 0.1009
vn -0.0232 -0.9946 -0.1009
usemtl lambert1.003
s 1
f 1/1/1 2/2/1 3/3/1 4/4/1
f 2/2/2 5/5/2 6/6/2 3/3/2
f 5/5/3 7/7/3 8/8/3 6/6/3
f 7/7/4 1/9/4 4/10/4 8/8/4
f 2/11/5 1/12/5 7/7/5 5/5/5
f 6/6/6 8/8/6 4/13/6 3/14/6
o Cube.217_Cube.002
v -0.264572 0.348463 -0.153227
v 0.248281 0.315263 0.165173
v 0.248191 0.311535 0.164928
v -0.264662 0.344735 -0.153472
v 0.246304 0.315102 0.168340
v 0.246214 0.311374 0.168095
v -0.266549 0.348302 -0.150059
v -0.266639 0.344574 -0.150304
vt 0.375000 0.000000
vt 0.375000 0.250000
vt 0.625000 0.250000
vt 0.625000 0.000000
vt 0.375000 0.500000
vt 0.625000 0.500000
vt 0.375000 0.750000
vt 0.625000 0.750000
vt 0.375000 1.000000
vt 0.625000 1.000000
vt 0.125000 0.500000
vt 0.125000 0.750000
vt 0.875000 0.750000
vt 0.875000 0.500000
vn 0.5290 0.0429 -0.8475
vn 0.8483 -0.0546 0.5266
vn -0.5290 -0.0429 0.8475
vn -0.8483 0.0551 -0.5266
vn 0.0239 0.9976 0.0656
vn -0.0239 -0.9976 -0.0656
usemtl lambert1.003
s 1
f 9/15/7 10/16/7 11/17/7 12/18/7
f 10/16/8 13/19/8 14/20/8 11/17/8
f 13/19/9 15/21/9 16/22/9 14/20/9
f 15/21/10 9/23/10 12/24/10 16/22/10
f 10/25/11 9/26/11 15/21/11 13/19/11
f 14/20/12 16/22/12 12/27/12 11/28/12
o Cube.216_Cube.002
v -0.318011 0.353006 -0.087472
v 0.098499 0.322846 0.349688
v 0.098378 0.319113 0.349547
v -0.318132 0.349273 -0.087614
v 0.095793 0.322836 0.352266
v 0.095671 0.319104 0.352124
v -0.320717 0.352996 -0.084894
v -0.320838 0.349263 -0.085036
vt 0.375000 0.000000
vt 0.375000 0.250000
vt 0.625000 0.250000
vt 0.625000 0.000000
vt 0.375000 0.500000
vt 0.625000 0.500000
vt 0.375000 0.750000
vt 0.625000 0.750000
vt 0.375000 1.000000
vt 0.625000 1.000000
vt 0.125000 0.500000
vt 0.125000 0.750000
vt 0.875000 0.750000
vt 0.875000 0.500000
vn 0.7241 0.0027 -0.6897
vn 0.6889 -0.0498 0.7232
vn -0.7241 -0.0027 0.6897
vn -0.6890 0.0498 -0.7230
vn 0.0325 0.9988 0.0380
vn -0.0326 -0.9988 -0.0379
usemtl lambert1.003
s 1
f 17/29/13 18/30/13 19/31/13 20/32/13
f 18/30/14 21/33/14 22/34/14 19/31/14
f 21/33/15 23/35/15 24/36/15 22/34/15
f 23/35/16 17/37/16 20/38/16 24/36/16
f 18/39/17 17/40/17 23/35/17 21/33/17
f 22/34/18 24/36/18 20/41/18 19/42/18
o Plane.022_Plane.001
v -0.109009 0.332203 -0.196638
v -0.100711 0.335350 -0.229542
v -0.230672 0.341647 -0.261716
v -0.238970 0.338500 -0.228812
v -0.086935 0.331134 -0.191173
v -0.097776 0.335208 -0.228816
v -0.114372 0.328915 -0.163007
v -0.117307 0.329057 -0.163734
v -0.247269 0.335354 -0.195907
vt 0.500000 0.283403
vt 1.000000 0.283403
vt 1.000000 1.000000
vt 0.500000 1.000000
vt 0.500000 0.000000
vt 1.000000 0.000000
vt 0.000000 0.000000
vt 0.000000 0.283403
vt 0.000000 1.000000
vn 0.0232 0.9946 0.1010
vn 0.0232 0.9946 0.1009
usemtl musroom_leg.001
s 1
f 25/43/19 26/44/19 27/45/19 28/46/19
f 29/47/19 30/48/19 26/44/19 25/43/19
f 31/49/20 29/47/19 25/43/19 32/50/20
f 32/50/20 25/43/19 28/46/19 33/51/20
o Plane.021_Plane.001
v -0.109009 0.332203 -0.196638
v -0.109800 0.298307 -0.200079
v -0.239761 0.304604 -0.232252
v -0.238970 0.338500 -0.228812
v -0.086935 0.331134 -0.191173
v -0.106865 0.298164 -0.199352
v -0.105284 0.365958 -0.192471
v -0.108219 0.366100 -0.193198
v -0.238180 0.372397 -0.225371
vt 0.500000 0.283403
vt 1.000000 0.283403
vt 1.000000 1.000000
vt 0.500000 1.000000
vt 0.500000 0.000000
vt 1.000000 0.000000
vt 0.000000 0.000000
vt 0.000000 0.283403
vt 0.000000 1.000000
vn 0.2435 0.0923 -0.9655
usemtl musroom_leg.001
s 1
f 34/52/21 35/53/21 36/54/21 37/55/21
f 38/56/21 39/57/21 35/53/21 34/52/21
f 40/58/21 38/56/21 34/52/21 41/59/21
f 41/59/21 34/52/21 37/55/21 42/60/21
o Plane.020_Plane.001
v -0.153472 0.339290 -0.080747
v -0.135445 0.340755 -0.109632
v -0.249145 0.348115 -0.180221
v -0.267172 0.346650 -0.151337
v -0.134160 0.338040 -0.068758
v -0.132877 0.340589 -0.108038
v -0.168932 0.337659 -0.050269
v -0.171500 0.337825 -0.051863
v -0.285200 0.345185 -0.122452
vt 0.500000 0.283403
vt 1.000000 0.283403
vt 1.000000 1.000000
vt 0.500000 1.000000
vt 0.500000 0.000000
vt 1.000000 0.000000
vt 0.000000 0.000000
vt 0.000000 0.283403
vt 0.000000 1.000000
vn 0.0239 0.9976 0.0655
usemtl musroom_leg.001
s 1
f 43/61/22 44/62/22 45/63/22 46/64/22
f 47/65/22 48/66/22 44/62/22 43/61/22
f 49/67/22 47/65/22 43/61/22 50/68/22
f 50/68/22 43/61/22 46/64/22 51/69/22
o Plane.019_Plane.001
v -0.153472 0.339290 -0.080747
v -0.154287 0.305293 -0.082980
v -0.267987 0.312653 -0.153569
v -0.267172 0.346650 -0.151337
v -0.134160 0.338040 -0.068758
v -0.151719 0.305127 -0.081386
v -0.150090 0.373121 -0.076920
v -0.152658 0.373287 -0.078515
v -0.266357 0.380647 -0.149104
vt 0.500000 0.283403
vt 1.000000 0.283403
vt 1.000000 1.000000
vt 0.500000 1.000000
vt 0.500000 0.000000
vt 1.000000 0.000000
vt 0.000000 0.000000
vt 0.000000 0.283403
vt 0.000000 1.000000
vn 0.5290 0.0430 -0.8476
vn 0.5290 0.0430 -0.8475
vn 0.5289 0.0430 -0.8476
usemtl musroom_leg.001
s 1
f 52/70/23 53/71/23 54/72/24 55/73/24
f 56/74/23 57/75/25 53/71/23 52/70/23
f 58/76/24 56/74/23 52/70/23 59/77/24
f 59/77/24 52/70/23 55/73/24 60/78/24
o Plane.018_Plane.001
v -0.228704 0.344623 0.010685
v -0.204027 0.344712 -0.012820
v -0.296367 0.351399 -0.109739
v -0.321044 0.351309 -0.086234
v -0.213020 0.343487 0.027147
v -0.201942 0.344561 -0.010631
v -0.251296 0.344382 0.036379
v -0.253381 0.344533 0.034190
v -0.345721 0.351219 -0.062729
vt 0.500000 0.283403
vt 1.000000 0.283403
vt 1.000000 1.000000
vt 0.500000 1.000000
vt 0.500000 0.000000
vt 1.000000 0.000000
vt 0.000000 0.000000
vt 0.000000 0.283403
vt 0.000000 1.000000
vn 0.0325 0.9988 0.0379
vn 0.0325 0.9988 0.0380
usemtl musroom_leg.001
s 1
f 61/79/26 62/80/26 63/81/26 64/82/26
f 65/83/26 66/84/26 62/80/26 61/79/26
f 67/85/27 65/83/26 61/79/26 68/86/26
f 68/86/26 61/79/26 64/82/26 69/87/26
o Plane.017_Plane.001
v -0.228704 0.344623 0.010685
v -0.229812 0.310585 0.009392
v -0.322152 0.317271 -0.087527
v -0.321044 0.351309 -0.086234
v -0.213020 0.343487 0.027147
v -0.227726 0.310434 0.011581
v -0.225511 0.378509 0.014167
v -0.227596 0.378660 0.011978
v -0.319937 0.385346 -0.084941
vt 0.500000 0.283403
vt 1.000000 0.283403
vt 1.000000 1.000000
vt 0.500000 1.000000
vt 0.500000 0.000000
vt 1.000000 0.000000
vt 0.000000 0.000000
vt 0.000000 0.283403
vt 0.000000 1.000000
vn 0.7241 0.0026 -0.6897
usemtl musroom_leg.001
s 1
f 70/88/28 71/89/28 72/90/28 73/91/28
f 74/92/28 75/93/28 71/89/28 70/88/28
f 76/94/28 74/92/28 70/88/28 77/95/28
f 77/95/28 70/88/28 73/91/28 78/96/28
o Sphere.011_Sphere.002
v 0.286181 0.283536 -0.103170
v 0.286198 0.354516 -0.096378
v 0.392356 0.325610 -0.168863
v 0.361246 0.263096 -0.154424
v 0.335113 0.403525 -0.079356
v 0.404272 0.401855 -0.062074
v 0.410178 0.383086 -0.130610
v 0.335071 0.232164 -0.095752
v 0.453144 0.279503 -0.061448
v 0.404229 0.230493 -0.078470
v 0.453162 0.350483 -0.054657
v 0.346986 0.308408 0.011036
v 0.329165 0.250932 -0.027216
v 0.378097 0.370922 -0.003402
vt 0.750000 0.250000
vt 0.750000 0.500000
vt 0.500000 0.500000
vt 0.500000 0.250000
vt 0.750000 0.750000
vt 0.625000 1.000000
vt 0.500000 0.750000
vt 0.625000 0.000000
vt 0.250000 0.500000
vt 0.250000 0.250000
vt 0.375000 1.000000
vt 0.250000 0.750000
vt 0.375000 0.000000
vt 0.000000 0.500000
vt 0.000000 0.250000
vt 0.125000 1.000000
vt 0.000000 0.750000
vt 0.125000 0.000000
vt 1.000000 0.250000
vt 1.000000 0.500000
vt 1.000000 0.750000
vt 0.875000 1.000000
vt 0.875000 0.000000
vn -0.5472 0.0799 -0.8332
vn 0.0872 0.9627 -0.2561
vn -0.5537 -0.6089 -0.5680
vn -0.3384 0.5918 -0.7316
vn 0.6689 -0.4665 -0.5788
vn 0.7277 0.6749 -0.1221
vn 0.0868 -0.8967 -0.4340
vn 0.8776 0.0454 -0.4772
vn 0.3384 -0.5918 0.7316
vn 0.5537 0.6089 0.5680
vn -0.0873 -0.9627 0.2561
vn 0.5472 -0.0799 0.8332
vn -0.8776 -0.0454 0.4772
vn -0.0868 0.8967 0.4340
vn -0.7277 -0.6749 0.1221
vn -0.6688 0.4665 0.5788
usemtl Material.005
s 1
f 79/97/29 80/98/29 81/99/29 82/100/29
f 83/101/30 84/102/30 85/103/30
f 86/104/31 79/97/31 82/100/31
f 80/98/32 83/101/32 85/103/32 81/99/32
f 82/100/33 81/99/33 87/105/33 88/106/33
f 85/103/34 84/107/34 89/108/34
f 86/109/35 82/100/35 88/106/35
f 81/99/36 85/103/36 89/108/36 87/105/36
f 88/106/37 87/105/37 90/110/37 91/111/37
f 89/108/38 84/112/38 92/113/38
f 86/114/39 88/106/39 91/111/39
f 87/105/40 89/108/40 92/113/40 90/110/40
f 91/115/41 90/116/41 80/98/41 79/97/41
f 92/117/42 84/118/42 83/101/42
f 86/119/43 91/115/43 79/97/43
f 90/116/44 92/117/44 83/101/44 80/98/44
o Sphere.010_Sphere.002
v 0.192633 0.287224 0.130867
v 0.192905 0.358427 0.134648
v 0.315094 0.324137 0.099248
v 0.279033 0.262977 0.105835
v 0.235886 0.407198 0.163947
v 0.296397 0.404967 0.201600
v 0.322286 0.382951 0.138915
v 0.235228 0.235297 0.154818
v 0.338720 0.281837 0.221770
v 0.295739 0.233066 0.192471
v 0.338992 0.353041 0.225551
v 0.216531 0.316128 0.257170
v 0.209339 0.257313 0.217503
v 0.252592 0.377288 0.250583
vt 0.750000 0.250000
vt 0.750000 0.500000
vt 0.500000 0.500000
vt 0.500000 0.250000
vt 0.750000 0.750000
vt 0.625000 1.000000
vt 0.500000 0.750000
vt 0.625000 0.000000
vt 0.250000 0.500000
vt 0.250000 0.250000
vt 0.375000 1.000000
vt 0.250000 0.750000
vt 0.375000 0.000000
vt 0.000000 0.500000
vt 0.000000 0.250000
vt 0.125000 1.000000
vt 0.000000 0.750000
vt 0.125000 0.000000
vt 1.000000 0.250000
vt 1.000000 0.500000
vt 1.000000 0.750000
vt 0.875000 1.000000
vt 0.875000 0.000000
vn -0.2644 0.0522 -0.9630
vn 0.1926 0.9480 -0.2534
vn -0.3739 -0.6234 -0.6867
vn -0.0798 0.5641 -0.8219
vn 0.7977 -0.5057 -0.3284
vn 0.7520 0.6542 0.0808
vn 0.1855 -0.9173 -0.3525
vn 0.9823 0.0062 -0.1873
vn 0.0798 -0.5641 0.8219
vn 0.3739 0.6234 0.6867
vn -0.1926 -0.9480 0.2534
vn 0.2644 -0.0522 0.9630
vn -0.9823 -0.0062 0.1873
vn -0.1855 0.9173 0.3524
vn -0.7520 -0.6542 -0.0808
vn -0.7977 0.5057 0.3284
usemtl Material.005
s 1
f 93/120/45 94/121/45 95/122/45 96/123/45
f 97/124/46 98/125/46 99/126/46
f 100/127/47 93/120/47 96/123/47
f 94/121/48 97/124/48 99/126/48 95/122/48
f 96/123/49 95/122/49 101/128/49 102/129/49
f 99/126/50 98/130/50 103/131/50
f 100/132/51 96/123/51 102/129/51
f 95/122/52 99/126/52 103/131/52 101/128/52
f 102/129/53 101/128/53 104/133/53 105/134/53
f 103/131/54 98/135/54 106/136/54
f 100/137/55 102/129/55 105/134/55
f 101/128/56 103/131/56 106/136/56 104/133/56
f 105/138/57 104/139/57 94/121/57 93/120/57
f 106/140/58 98/141/58 97/124/58
f 100/142/59 105/138/59 93/120/59
f 104/139/60 106/140/60 97/124/60 94/121/60
o Sphere.009_Sphere.003
v 0.052431 0.294512 0.303485
v 0.053586 0.365792 0.304969
v 0.179816 0.328140 0.302270
v 0.141690 0.267888 0.301576
v 0.089167 0.414872 0.342512
v 0.138333 0.413001 0.394122
v 0.178425 0.388247 0.340604
v 0.086381 0.242787 0.338929
v 0.171128 0.289996 0.428082
v 0.135546 0.240916 0.390538
v 0.172282 0.361276 0.429566
v 0.044898 0.327648 0.430781
v 0.046288 0.267540 0.392447
v 0.083024 0.387900 0.431474
vt 0.750000 0.250000
vt 0.750000 0.500000
vt 0.500000 0.500000
vt 0.500000 0.250000
vt 0.750000 0.750000
vt 0.625000 1.000000
vt 0.500000 0.750000
vt 0.625000 0.000000
vt 0.250000 0.500000
vt 0.250000 0.250000
vt 0.375000 1.000000
vt 0.250000 0.750000
vt 0.375000 0.000000
vt 0.000000 0.500000
vt 0.000000 0.250000
vt 0.125000 1.000000
vt 0.000000 0.750000
vt 0.125000 0.000000
vt 1.000000 0.250000
vt 1.000000 0.500000
vt 1.000000 0.750000
vt 0.875000 1.000000
vt 0.875000 0.000000
vn -0.0151 0.0211 -0.9997
vn 0.2739 0.9346 -0.2271
vn -0.2073 -0.6419 -0.7382
vn 0.1417 0.5346 -0.8331
vn 0.8411 -0.5310 -0.1029
vn 0.7248 0.6438 0.2452
vn 0.2437 -0.9327 -0.2659
vn 0.9978 -0.0175 0.0636
vn -0.1416 -0.5346 0.8331
vn 0.2072 0.6419 0.7382
vn -0.2739 -0.9346 0.2271
vn 0.0151 -0.0211 0.9997
vn -0.9978 0.0175 -0.0636
vn -0.2437 0.9327 0.2659
vn -0.7248 -0.6438 -0.2452
vn -0.8411 0.5310 0.1029
usemtl Material.005
s 1
f 107/143/61 108/144/61 109/145/61 110/146/61
f 111/147/62 112/148/62 113/149/62
f 114/150/63 107/143/63 110/146/63
f 108/144/64 111/147/64 113/149/64 109/145/64
f 110/146/65 109/145/65 115/151/65 116/152/65
f 113/149/66 112/153/66 117/154/66
f 114/155/67 110/146/67 116/152/67
f 109/145/68 113/149/68 117/154/68 115/151/68
f 116/152/69 115/151/69 118/156/69 119/157/69
f 117/154/70 112/158/70 120/159/70
f 114/160/71 116/152/71 119/157/71
f 115/151/72 117/154/72 120/159/72 118/156/72
f 119/161/73 118/162/73 108/144/73 107/143/73
f 120/163/74 112/164/74 111/147/74
f 114/165/75 119/161/75 107/143/75
f 118/162/76 120/163/76 111/147/76 108/144/76
