# Blender v3.1.2 OBJ File: ''
# www.blender.org
mtllib item.mtl
o Cube.219_Cube.002
v 0.047418 0.352298 0.111762
v 0.005101 0.364582 0.087407
v -0.011238 0.327626 0.097158
v 0.031078 0.315343 0.121513
v 0.046999 0.267125 -0.034542
v 0.089316 0.254842 -0.010187
v 0.063339 0.304080 -0.044293
v 0.105656 0.291797 -0.019938
v 0.058716 0.289176 0.053133
v 0.021384 0.300012 0.031647
v 0.084712 0.234222 -0.111567
v 0.122045 0.223386 -0.090080
v 0.135521 0.253866 -0.098123
v 0.136646 0.173498 -0.280586
v 0.145344 0.193170 -0.285777
v 0.072192 0.319656 0.045090
v 0.034860 0.330493 0.023604
v 0.098189 0.264703 -0.119609
v 0.136646 0.173498 -0.280586
v 0.145344 0.193170 -0.285777
v 0.107645 0.208621 -0.290390
v 0.098947 0.188948 -0.285200
v 0.098947 0.188948 -0.285200
v 0.107645 0.208621 -0.290390
v 0.063669 0.096074 -0.493570
v 0.058491 0.084362 -0.490480
v 0.077246 0.089448 -0.495926
v 0.089625 0.076272 -0.525120
v 0.082989 0.075620 -0.538707
v 0.072067 0.077737 -0.492836
v 0.125027 0.081240 -0.516413
v 0.124173 0.076749 -0.534864
v 0.084447 0.064560 -0.522029
v 0.077811 0.063909 -0.535617
v 0.119849 0.069529 -0.513323
v 0.118995 0.065037 -0.531773
v -0.004612 0.354966 0.196346
v -0.041945 0.365802 0.174860
v 0.008865 0.385446 0.188303
v -0.119564 0.468375 0.313296
v -0.128262 0.448703 0.318487
v -0.028468 0.396282 0.166816
v -0.119564 0.468375 0.313296
v -0.128262 0.448703 0.318487
v -0.153917 0.451642 0.286638
v -0.145219 0.471314 0.281447
v -0.153917 0.451642 0.286638
v -0.342404 0.500841 0.416124
v -0.337227 0.512553 0.413034
v -0.145219 0.471314 0.281447
v -0.357567 0.533301 0.457585
v -0.344043 0.526799 0.455599
v -0.330820 0.513377 0.426891
v -0.335998 0.501665 0.429982
v -0.325091 0.543476 0.481120
v -0.311576 0.534815 0.470940
v -0.349222 0.515087 0.458689
v -0.362744 0.521590 0.460675
v -0.316754 0.523104 0.474030
v -0.330269 0.531765 0.484210
v -0.330967 0.510519 0.426728
v -0.338091 0.512586 0.422628
v -0.341423 0.505050 0.424616
v -0.334298 0.502982 0.428717
v 0.072880 0.079976 -0.492094
v 0.065756 0.082044 -0.496194
v 0.069087 0.089580 -0.498183
v 0.076212 0.087512 -0.494083
v 0.153170 0.246615 -0.171401
v 0.100059 0.270272 -0.184081
v 0.079414 0.228352 -0.174994
v 0.132525 0.204695 -0.162314
v 0.089290 0.216223 -0.206320
v 0.142401 0.192566 -0.193641
v 0.109934 0.258143 -0.215408
v 0.163045 0.234487 -0.202728
v -0.026561 0.433333 0.235051
v -0.047861 0.392093 0.245619
v -0.087345 0.401593 0.202122
v -0.066046 0.442833 0.191554
v -0.063931 0.406920 0.272968
v -0.103416 0.416420 0.229471
v -0.042632 0.448159 0.262400
v -0.082116 0.457659 0.218903
vt 0.375000 0.000000
vt 0.625000 0.000000
vt 0.625000 0.250000
vt 0.375000 0.250000
vt 0.625000 0.500000
vt 0.375000 0.500000
vt 0.625000 0.750000
vt 0.375000 0.750000
vt 0.625000 1.000000
vt 0.375000 1.000000
vt 0.125000 0.500000
vt 0.125000 0.750000
vt 0.875000 0.500000
vt 0.875000 0.750000
vt 0.375000 0.000000
vt 0.625000 0.000000
vt 0.625000 0.250000
vt 0.375000 0.250000
vt 0.625000 0.500000
vt 0.375000 0.500000
vt 0.625000 0.750000
vt 0.375000 0.750000
vt 0.625000 1.000000
vt 0.375000 1.000000
vt 0.125000 0.500000
vt 0.125000 0.750000
vt 0.875000 0.500000
vt 0.875000 0.750000
vt 0.375000 0.000000
vt 0.375000 0.250000
vt 0.625000 0.250000
vt 0.625000 0.000000
vt 0.375000 0.500000
vt 0.625000 0.500000
vt 0.375000 0.750000
vt 0.625000 0.750000
vt 0.375000 1.000000
vt 0.625000 1.000000
vt 0.125000 0.500000
vt 0.125000 0.750000
vt 0.875000 0.750000
vt 0.875000 0.500000
vt 0.375000 0.375000
vt 0.625000 0.375000
vt 0.625000 0.500000
vt 0.375000 0.500000
vt 0.375000 0.750000
vt 0.375000 0.500000
vt 0.375000 0.750000
vt 0.250000 0.500000
vt 0.250000 0.750000
vt 0.750000 0.500000
vt 0.750000 0.750000
vt 0.625000 0.750000
vt 0.625000 0.875000
vt 0.375000 0.875000
vt 0.375000 0.500000
vt 0.375000 0.750000
vt 0.625000 0.750000
vt 0.625000 0.500000
vt 0.625000 0.500000
vt 0.625000 0.750000
vt 0.625000 0.750000
vt 0.625000 0.500000
vt 0.375000 0.750000
vt 0.375000 0.750000
vt 0.625000 0.750000
vt 0.375000 0.500000
vt 0.375000 0.750000
vt 0.625000 0.750000
vt 0.375000 0.500000
vt 0.625000 0.500000
vt 0.375000 0.500000
vt 0.625000 0.500000
vt 0.375000 0.500000
vt 0.625000 0.500000
vt 0.375000 0.750000
vt 0.375000 0.750000
vt 0.375000 0.500000
vt 0.625000 0.750000
vt 0.375000 0.750000
vt 0.375000 0.500000
vt 0.625000 0.500000
vt 0.625000 0.750000
vt 0.625000 0.500000
vt 0.625000 0.500000
vt 0.625000 0.750000
vt 0.625000 0.750000
vt 0.625000 0.750000
vt 0.375000 0.750000
vt 0.375000 0.750000
vt 0.375000 0.500000
vt 0.625000 0.750000
vt 0.375000 0.750000
vt 0.375000 0.500000
vt 0.625000 0.500000
vt 0.375000 0.500000
vt 0.625000 0.500000
vt 0.375000 0.000000
vt 0.625000 0.000000
vt 0.625000 0.250000
vt 0.375000 0.250000
vt 0.375000 0.500000
vt 0.625000 0.500000
vt 0.625000 0.750000
vt 0.375000 0.750000
vt 0.625000 1.000000
vt 0.375000 1.000000
vt 0.125000 0.500000
vt 0.125000 0.750000
vt 0.875000 0.500000
vt 0.875000 0.750000
vn -0.3729 0.3873 0.8432
vn -0.3931 -0.8891 0.2346
vn 0.3729 -0.3873 -0.8432
vn 0.3931 0.8891 -0.2346
vn 0.8405 -0.2440 0.4838
vn -0.8405 0.2440 -0.4838
vn -0.1118 0.2628 0.9584
vn -0.4382 -0.8761 0.2010
vn 0.1118 -0.2628 -0.9584
vn 0.4382 0.8761 -0.2011
vn 0.8541 -0.3342 0.3986
vn -0.8541 0.3342 -0.3986
vn 0.5978 -0.4744 -0.6462
vn -0.4430 -0.8711 0.2119
vn -0.5978 0.4744 0.6462
vn 0.4430 0.8711 -0.2119
vn 0.7707 -0.2476 0.5871
vn -0.7707 0.2476 -0.5871
vn 0.9174 -0.3621 0.1651
vn 0.8405 -0.2440 0.4837
vn -0.8405 0.2440 -0.4837
vn 0.0000 0.0000 1.0000
vn -0.9171 0.3608 -0.1693
vn -0.3862 -0.8994 0.2045
vn 0.3995 0.8777 -0.2645
vn -0.9166 0.3992 -0.0228
vn -0.3654 -0.8001 0.4758
vn 0.3595 0.7832 -0.5073
vn 0.9029 -0.4215 -0.0845
vn -0.0548 0.9878 -0.1458
vn 0.8459 -0.2496 0.4714
vn -0.8447 0.2484 -0.4741
vn 0.9184 -0.3921 0.0530
vn -0.2700 0.3555 0.8948
vn 0.0968 -0.2938 -0.9510
vn 0.0548 -0.9878 0.1457
vn 0.6616 -0.0963 0.7437
vn -0.6644 0.0982 -0.7409
vn -0.4101 -0.8747 0.2584
vn 0.3757 0.9025 -0.2106
vn -0.5607 0.0296 -0.8275
vn -0.1957 -0.9763 0.0921
vn 0.1668 0.9834 -0.0715
vn 0.4769 0.0210 0.8787
vn 0.1542 0.7708 -0.6182
vn 0.8350 -0.2383 0.4960
vn -0.8362 0.2395 -0.4933
vn -0.3932 -0.8890 0.2346
vn 0.5831 -0.0437 0.8113
vn 0.4704 -0.4137 -0.7795
vn -0.6129 0.4435 0.6540
vn -0.1542 -0.7708 0.6182
vn -0.3729 0.3874 0.8432
vn 0.3728 -0.3874 -0.8432
usemtl lambert1.004
s 1
f 1/1/1 2/2/1 3/3/1 4/4/1
f 4/4/2 3/3/2 5/5/2 6/6/2
f 6/6/3 5/5/3 7/7/3 8/8/3
f 8/8/4 7/7/4 2/9/4 1/10/4
f 4/11/5 6/6/5 8/8/5 1/12/5
f 5/5/6 3/13/6 2/14/6 7/7/6
f 69/15/7 70/16/7 71/17/7 72/18/7
f 72/18/8 71/17/8 73/19/8 74/20/8
f 74/20/9 73/19/9 75/21/9 76/22/9
f 76/22/10 75/21/10 70/23/10 69/24/10
f 72/25/11 74/20/11 76/22/11 69/26/11
f 73/19/12 71/27/12 70/28/12 75/21/12
f 77/29/13 78/30/13 79/31/13 80/32/13
f 78/30/14 81/33/14 82/34/14 79/31/14
f 81/33/15 83/35/15 84/36/15 82/34/15
f 83/35/16 77/37/16 80/38/16 84/36/16
f 78/39/17 77/40/17 83/35/17 81/33/17
f 82/34/18 84/36/18 80/41/18 79/42/18
usemtl musroom_leg.001
f 9/43/2 10/44/2 11/45/2 12/46/2
f 13/47/19 12/46/19 14/48/19 15/49/19
f 9/50/20 12/46/5 13/47/5 16/51/20
f 11/45/21 10/52/21 17/53/21 18/54/21
f 13/47/4 18/54/4 17/55/4 16/56/4
f 15/49/22 14/48/22 19/57/22 20/58/22
f 11/45/23 18/54/23 21/59/23 22/60/23
f 12/46/24 11/45/24 22/60/24 14/48/24
f 18/54/25 13/47/25 15/49/25 21/59/25
f 23/61/26 24/62/26 25/63/26 26/64/26
f 22/60/22 21/59/22 24/62/22 23/61/22
f 14/48/22 22/60/22 23/61/22 19/57/22
f 21/59/22 15/49/22 20/58/22 24/62/22
f 25/63/4 27/65/4 28/66/4 29/67/4
f 19/57/27 23/61/27 26/64/27 30/68/27
f 24/62/28 20/58/28 27/65/28 25/63/28
f 20/58/29 19/57/29 30/68/29 27/65/29
f 29/67/30 28/66/30 31/69/30 32/70/30
f 27/65/31 30/68/31 33/71/31 28/66/31
f 26/64/32 25/63/32 29/67/32 34/72/32
f 30/68/2 26/64/2 34/72/2 33/71/2
f 35/73/33 36/74/33 32/70/33 31/69/33
f 28/66/34 33/71/34 35/73/34 31/69/34
f 34/72/35 29/67/35 32/70/35 36/74/35
f 33/71/36 34/72/36 36/74/36 35/73/36
f 9/43/2 37/75/2 38/76/2 10/44/2
f 39/77/37 40/78/37 41/79/37 37/75/37
f 9/50/20 16/51/20 39/77/20 37/75/20
f 38/76/21 42/80/21 17/53/21 10/52/21
f 39/77/4 16/56/4 17/55/4 42/80/4
f 40/78/22 43/81/22 44/82/22 41/79/22
f 38/76/38 45/83/38 46/84/38 42/80/38
f 37/75/39 41/79/39 45/83/39 38/76/39
f 42/80/40 46/84/40 40/78/40 39/77/40
f 47/85/41 48/86/41 49/87/41 50/88/41
f 45/83/22 47/85/22 50/88/22 46/84/22
f 41/79/22 44/82/22 47/85/22 45/83/22
f 46/84/22 50/88/22 43/81/22 40/78/22
f 49/87/4 51/89/4 52/90/4 53/91/4
f 44/82/42 54/92/42 48/86/42 47/85/42
f 50/88/43 49/87/43 53/91/43 43/81/43
f 43/81/44 53/91/44 54/92/44 44/82/44
f 51/89/45 55/93/45 56/94/45 52/90/45
f 53/91/46 52/90/46 57/95/46 54/92/46
f 48/86/47 58/96/47 51/89/47 49/87/47
f 54/92/48 57/95/48 58/96/48 48/86/48
f 59/97/49 56/94/49 55/93/49 60/98/49
f 52/90/50 56/94/50 59/97/50 57/95/50
f 58/96/51 60/98/51 55/93/51 51/89/51
f 57/95/52 59/97/52 60/98/52 58/96/52
f 61/99/53 62/100/53 63/101/53 64/102/53
f 65/103/54 66/104/54 67/105/54 68/106/54
f 64/102/2 63/101/2 66/104/2 65/103/2
f 68/106/4 67/105/4 62/107/4 61/108/4
f 64/109/20 65/103/20 68/106/20 61/110/20
f 66/104/21 63/111/21 62/112/21 67/105/21
