# Blender v3.1.2 OBJ File: ''
# www.blender.org
mtllib drink_color.mtl
o COLOR_ME.001_COLOR_ME.014
v -0.178416 0.566902 0.106484
v -0.132784 0.856080 0.052846
v -0.193237 0.858156 -0.065105
v -0.250229 0.566902 -0.085015
v -0.250800 0.961298 -0.073114
v -0.205088 0.961298 -0.245786
v -0.132784 0.856080 -0.226636
v 0.020341 0.961298 -0.354332
v 0.020341 0.856426 -0.262214
v -0.153171 0.566902 -0.213752
v -0.056690 0.567258 0.157144
v -0.131292 0.857026 0.116032
v -0.059038 0.480351 0.157665
v -0.182793 0.480133 0.110859
v -0.158530 0.051480 0.244107
v -0.326014 0.107307 0.151091
v -0.130053 1.293859 -0.220168
v 0.020341 1.293859 -0.294310
v 0.020341 0.566902 -0.279156
v -0.256796 0.480134 -0.085015
v -0.408747 0.107307 -0.087538
v -0.156991 0.480134 -0.218406
v -0.257685 0.107307 -0.358885
v -0.221236 0.961298 0.042090
v -0.185667 1.253276 0.070745
v -0.184677 1.293859 -0.047727
v 0.020341 0.480133 -0.285722
v 0.020341 0.209446 -0.379144
v 0.020341 1.458971 0.025433
v 0.020341 1.465467 -0.173779
v 0.020341 1.390130 0.127997
v 0.219099 0.566902 0.106484
v 0.290911 0.566902 -0.085015
v 0.233919 0.858156 -0.065105
v 0.173467 0.856080 0.052846
v 0.173467 0.856080 -0.226636
v 0.245770 0.961298 -0.245786
v 0.291482 0.961298 -0.073114
v 0.193853 0.566902 -0.213752
v 0.097373 0.567258 0.157144
v 0.171975 0.857026 0.116032
v 0.099720 0.480351 0.157665
v 0.223476 0.480133 0.110859
v 0.199212 0.051480 0.244107
v 0.366696 0.107307 0.151091
v 0.170735 1.293859 -0.220168
v 0.449429 0.107307 -0.087538
v 0.297479 0.480134 -0.085015
v 0.197674 0.480134 -0.218406
v 0.298368 0.107307 -0.358885
v 0.225359 1.293859 -0.047727
v 0.226349 1.253276 0.070745
v 0.261919 0.961298 0.042090
vt 0.203256 0.442965
vt 0.240948 0.442965
vt 0.241169 0.511976
vt 0.205203 0.511976
vt 0.278639 0.511976
vt 0.278639 0.580987
vt 0.241213 0.580988
vt 0.278639 0.649999
vt 0.241137 0.646266
vt 0.205380 0.589754
vt 0.204159 0.963058
vt 0.241050 0.963058
vt 0.240948 0.995054
vt 0.203256 0.995054
vt 0.172039 0.963058
vt 0.171936 0.995054
vt 0.140616 0.963058
vt 0.140616 0.995054
vt 0.278639 0.580987
vt 0.278639 0.649999
vt 0.205380 0.649999
vt 0.140616 0.442965
vt 0.171936 0.442965
vt 0.172158 0.511976
vt 0.140616 0.511976
vt 0.172202 0.589754
vt 0.140616 0.580987
vt 0.278639 0.442965
vt 0.278639 0.442965
vt 0.278639 0.511976
vt 0.172202 0.649999
vt 0.140616 0.649999
vt 0.278639 0.511976
vt 0.278639 0.580987
vt 0.278639 0.442965
vt 0.203256 0.442965
vt 0.205203 0.511976
vt 0.241169 0.511976
vt 0.240948 0.442965
vt 0.241213 0.580988
vt 0.278639 0.580987
vt 0.278639 0.511976
vt 0.205380 0.589754
vt 0.204159 0.963058
vt 0.203256 0.995054
vt 0.240948 0.995054
vt 0.241050 0.963058
vt 0.172039 0.963058
vt 0.171936 0.995054
vt 0.140616 0.963058
vt 0.140616 0.995054
vt 0.278639 0.580987
vt 0.140616 0.442965
vt 0.140616 0.511976
vt 0.172158 0.511976
vt 0.171936 0.442965
vt 0.172202 0.589754
vt 0.140616 0.580987
vt 0.278639 0.511976
vt 0.278639 0.442965
vt 0.278639 0.442965
vn -0.9037 0.1823 0.3875
vn -0.8871 -0.3744 -0.2699
vn -0.3129 -0.4933 -0.8117
vn -0.2553 -0.8730 0.4157
vn -0.8899 -0.3739 -0.2614
vn 0.3959 -0.6658 -0.6324
vn -0.4660 -0.7156 0.5204
vn -0.2027 -0.4596 -0.8647
vn -0.2129 -0.4329 -0.8759
vn -0.8720 0.1220 -0.4741
vn -0.8737 0.1112 -0.4736
vn -0.6766 0.0858 0.7313
vn -0.3764 0.0496 0.9251
vn -0.3688 0.0405 0.9286
vn -0.3867 0.2276 0.8937
vn -0.3879 0.2475 0.8878
vn -0.3784 0.2552 0.8898
vn 0.2250 0.5499 -0.8043
vn -0.3953 0.0977 -0.9133
vn 0.0678 0.3490 -0.9347
vn -0.8669 0.4728 0.1582
vn -0.2953 0.0171 -0.9552
vn -0.2852 0.0167 -0.9583
vn -0.2791 0.0207 -0.9600
vn -0.8765 0.3630 0.3162
vn -0.9337 0.0677 0.3515
vn -0.7980 0.0638 -0.5993
vn -0.7982 0.0637 -0.5990
vn -0.7981 0.0744 -0.5979
vn -0.7921 0.3626 -0.4910
vn -0.7978 0.3613 -0.4826
vn -0.8036 0.3552 -0.4776
vn -0.5599 0.1113 0.8211
vn -0.4371 0.7337 -0.5203
vn -0.8203 0.3635 0.4416
vn -0.9757 0.1311 0.1757
vn -0.6833 0.6613 0.3096
vn -0.5251 0.8394 -0.1400
vn -0.9421 0.1846 -0.2801
vn -0.9612 0.1705 -0.2167
vn -0.3431 0.0691 -0.9368
vn -0.3530 0.0681 -0.9331
vn -0.3543 0.0686 -0.9326
vn -0.3560 0.0759 -0.9314
vn -0.2582 0.3821 -0.8873
vn -0.2556 0.3558 -0.8989
vn -0.2624 0.3621 -0.8944
vn -0.2510 0.3670 -0.8957
vn -0.6375 0.7699 -0.0278
vn -0.6569 0.7442 -0.1209
vn -0.7166 0.6916 -0.0906
vn -0.7088 0.7039 0.0461
vn -0.2128 0.0725 -0.9744
vn -0.3011 0.5610 -0.7711
vn -0.4419 0.4234 -0.7909
vn -0.5974 0.7180 0.3570
vn -0.7601 0.3730 0.5321
vn -0.5237 0.4816 0.7027
vn -0.6172 0.6711 0.4107
vn 0.2773 -0.8570 -0.4344
vn 0.0766 -0.9971 0.0035
vn -0.9035 -0.2773 0.3269
vn -0.9035 -0.2776 0.3266
vn -0.9610 -0.2755 0.0244
vn -0.9611 -0.2756 0.0181
vn 0.2791 -0.8595 -0.4281
vn 0.9037 0.1823 0.3875
vn 0.8871 -0.3744 -0.2699
vn 0.8899 -0.3739 -0.2614
vn 0.2553 -0.8730 0.4157
vn 0.3129 -0.4933 -0.8117
vn -0.3959 -0.6658 -0.6324
vn 0.2129 -0.4329 -0.8759
vn 0.2027 -0.4596 -0.8647
vn 0.4660 -0.7156 0.5204
vn 0.8720 0.1220 -0.4741
vn 0.8737 0.1112 -0.4736
vn 0.6766 0.0858 0.7313
vn 0.3764 0.0496 0.9251
vn 0.3688 0.0405 0.9286
vn 0.3867 0.2276 0.8937
vn 0.3784 0.2552 0.8898
vn 0.3879 0.2475 0.8878
vn -0.2250 0.5499 -0.8043
vn 0.8669 0.4728 0.1582
vn -0.0678 0.3490 -0.9347
vn 0.3953 0.0977 -0.9133
vn 0.2953 0.0171 -0.9552
vn 0.2791 0.0207 -0.9600
vn 0.2852 0.0167 -0.9583
vn 0.8765 0.3630 0.3162
vn 0.9337 0.0678 0.3515
vn 0.7980 0.0638 -0.5993
vn 0.7981 0.0744 -0.5979
vn 0.7983 0.0637 -0.5989
vn 0.7921 0.3626 -0.4910
vn 0.8036 0.3552 -0.4776
vn 0.7978 0.3613 -0.4826
vn 0.5599 0.1113 0.8211
vn 0.9757 0.1311 0.1757
vn 0.8203 0.3635 0.4416
vn 0.4371 0.7337 -0.5203
vn 0.6833 0.6613 0.3096
vn 0.9612 0.1705 -0.2167
vn 0.9421 0.1846 -0.2801
vn 0.5251 0.8394 -0.1400
vn 0.3431 0.0691 -0.9368
vn 0.3560 0.0759 -0.9314
vn 0.3543 0.0686 -0.9326
vn 0.3530 0.0681 -0.9331
vn 0.2582 0.3821 -0.8873
vn 0.2510 0.3670 -0.8957
vn 0.2624 0.3621 -0.8944
vn 0.2556 0.3558 -0.8989
vn 0.6375 0.7699 -0.0278
vn 0.7088 0.7039 0.0461
vn 0.7166 0.6916 -0.0906
vn 0.6569 0.7442 -0.1209
vn 0.2128 0.0725 -0.9744
vn 0.4419 0.4234 -0.7909
vn 0.3011 0.5610 -0.7711
vn 0.5974 0.7180 0.3570
vn 0.6172 0.6711 0.4107
vn 0.5237 0.4816 0.7027
vn 0.7601 0.3730 0.5321
vn -0.2773 -0.8570 -0.4344
vn 0.9035 -0.2776 0.3266
vn 0.9035 -0.2773 0.3269
vn -0.0766 -0.9971 0.0035
vn 0.9610 -0.2755 0.0244
vn -0.2791 -0.8595 -0.4281
vn 0.9611 -0.2756 0.0181
usemtl None.022
s off
f 1/1/1 2/2/1 3/3/1 4/4/1
f 3/3/2 5/5/3 6/6/4 7/7/5
f 6/6/6 8/8/7 9/9/8 7/7/9
f 4/4/10 3/3/10 7/7/11 10/10/10
f 11/11/12 12/12/12 2/13/12 1/14/12
f 13/15/13 11/11/14 1/14/14 14/16/14
f 15/17/15 13/15/16 14/16/17 16/18/17
f 6/6/18 17/19/19 18/20/20 8/8/21
f 10/10/22 7/7/23 9/9/24 19/21/22
f 16/22/25 14/23/25 20/24/25 21/25/25
f 14/23/26 1/1/26 4/4/26 20/24/26
f 20/24/27 4/4/27 10/10/28 22/26/29
f 21/25/30 20/24/30 22/26/31 23/27/32
f 5/5/33 24/28/34 25/29/35 26/30/36
f 6/6/37 5/5/38 26/30/39 17/19/40
f 22/26/41 10/10/42 19/21/43 27/31/44
f 23/27/45 22/26/46 27/31/47 28/32/48
f 17/19/49 26/30/50 29/33/51 30/34/52
f 18/20/53 17/19/54 30/34/55
f 26/30/56 25/29/57 31/35/58 29/33/59
f 24/28/60 5/5/61 3/3/62 2/2/63
f 2/13/64 12/12/65 24/28/66
f 32/36/67 33/37/67 34/38/67 35/39/67
f 34/38/68 36/40/69 37/41/70 38/42/71
f 37/41/72 36/40/73 9/9/74 8/8/75
f 33/37/76 39/43/76 36/40/77 34/38/76
f 40/44/78 32/45/78 35/46/78 41/47/78
f 42/48/79 43/49/80 32/45/80 40/44/80
f 44/50/81 45/51/82 43/49/82 42/48/83
f 37/41/84 8/8/85 18/20/86 46/52/87
f 39/43/88 19/21/88 9/9/89 36/40/90
f 45/53/91 47/54/91 48/55/91 43/56/91
f 43/56/92 48/55/92 33/37/92 32/36/92
f 48/55/93 49/57/94 39/43/95 33/37/93
f 47/54/96 50/58/97 49/57/98 48/55/96
f 38/42/99 51/59/100 52/60/101 53/61/102
f 37/41/103 46/52/104 51/59/105 38/42/106
f 49/57/107 27/31/108 19/21/109 39/43/110
f 50/58/111 28/32/112 27/31/113 49/57/114
f 46/52/115 30/34/116 29/33/117 51/59/118
f 18/20/119 30/34/120 46/52/121
f 51/59/122 29/33/123 31/35/124 52/60/125
f 53/61/126 35/39/127 34/38/128 38/42/129
f 35/46/130 53/61/131 41/47/132
o COLOR_ME.002_COLOR_ME.013
v -0.318708 0.948051 0.266464
v -0.368313 0.960230 0.230204
v -0.373509 1.015874 0.303187
v -0.292301 0.986190 0.311721
v -0.417919 0.928150 0.209371
v -0.454635 0.986902 0.313765
v -0.322764 0.745430 0.029589
v -0.348484 0.794377 -0.001878
v -0.226633 0.736094 -0.144357
v -0.227668 0.685356 -0.100064
v -0.353007 0.857421 0.001103
v -0.227668 0.802282 -0.140821
v -0.143267 0.826863 -0.129798
v -0.137373 0.777220 -0.125310
v -0.131388 0.727525 -0.094719
v -0.147401 0.863149 -0.078563
v -0.147396 0.864688 -0.020097
v -0.142545 0.824612 0.012138
v -0.135516 0.765349 0.014982
v -0.132517 0.738684 -0.034609
v -0.222613 0.796568 0.029133
v -0.224744 0.729099 0.025426
v -0.224744 0.846025 -0.015332
v -0.296486 0.895016 0.092958
v -0.270767 0.846070 0.124423
v -0.266243 0.783024 0.121443
v -0.224623 0.685513 -0.029441
v -0.288833 0.743229 0.080857
v -0.224623 0.847149 -0.085783
v -0.330417 0.897217 0.041690
v -0.414106 0.810473 0.251510
v -0.368313 0.797945 0.286771
v -0.373509 0.802495 0.377566
v -0.443077 0.831443 0.366335
v -0.322520 0.829677 0.306603
v -0.303859 0.831737 0.367179
v -0.433900 0.865645 0.219922
v -0.477268 0.909393 0.340977
v -0.269749 0.908975 0.339776
v -0.302727 0.892530 0.297051
v 0.318708 0.948051 0.266464
v 0.292301 0.986190 0.311721
v 0.373509 1.015874 0.303187
v 0.368313 0.960230 0.230204
v 0.454635 0.986902 0.313765
v 0.417919 0.928150 0.209371
v 0.322764 0.745430 0.029589
v 0.227668 0.685356 -0.100064
v 0.226633 0.736094 -0.144357
v 0.348484 0.794377 -0.001878
v 0.227668 0.802282 -0.140821
v 0.353007 0.857421 0.001103
v 0.137373 0.777220 -0.125310
v 0.143267 0.826863 -0.129798
v 0.131388 0.727525 -0.094719
v 0.132517 0.738684 -0.034609
v 0.135516 0.765349 0.014982
v 0.142545 0.824612 0.012138
v 0.147396 0.864688 -0.020097
v 0.147401 0.863149 -0.078563
v 0.224744 0.729099 0.025426
v 0.222613 0.796568 0.029133
v 0.224744 0.846025 -0.015332
v 0.270767 0.846070 0.124423
v 0.296486 0.895016 0.092958
v 0.266243 0.783024 0.121443
v 0.288833 0.743229 0.080857
v 0.224623 0.685513 -0.029441
v 0.224623 0.847149 -0.085783
v 0.330417 0.897217 0.041690
v 0.414106 0.810473 0.251510
v 0.443077 0.831443 0.366335
v 0.373509 0.802495 0.377566
v 0.368313 0.797945 0.286771
v 0.303859 0.831737 0.367179
v 0.322520 0.829677 0.306603
v 0.477268 0.909393 0.340977
v 0.433900 0.865645 0.219922
v 0.269749 0.908975 0.339776
v 0.302727 0.892530 0.297051
vt 0.875000 0.750000
vt 0.875000 0.625000
vt 0.875000 0.625000
vt 0.875000 0.750000
vt 0.875000 0.500000
vt 0.875000 0.500000
vt 0.375000 0.291667
vt 0.500000 0.291667
vt 0.500000 0.378472
vt 0.369792 0.375000
vt 0.625000 0.291667
vt 0.630208 0.375000
vt 0.666667 0.458333
vt 0.500000 0.493056
vt 0.333333 0.458333
vt 0.631945 0.625000
vt 0.666667 0.791667
vt 0.500000 0.756944
vt 0.333333 0.791667
vt 0.368056 0.625000
vt 0.500000 0.871528
vt 0.369792 0.875000
vt 0.630208 0.875000
vt 0.625000 0.958333
vt 0.500000 0.958333
vt 0.375000 0.958333
vt 0.166667 0.500000
vt 0.250000 0.494792
vt 0.253472 0.625000
vt 0.166667 0.625000
vt 0.250000 0.755208
vt 0.166667 0.750000
vt 0.755208 0.494792
vt 0.751736 0.625000
vt 0.875000 0.500000
vt 0.875000 0.625000
vt 0.875000 0.750000
vt 0.755208 0.755208
vt 0.125000 0.500000
vt 0.125000 0.625000
vt 0.125000 0.625000
vt 0.125000 0.500000
vt 0.125000 0.750000
vt 0.125000 0.750000
vt 0.625000 0.250000
vt 0.500000 0.250000
vt 0.500000 0.244792
vt 0.625000 0.244792
vt 0.375000 0.250000
vt 0.375000 0.244792
vt 0.375000 1.000000
vt 0.500000 1.000000
vt 0.375000 1.000000
vt 0.500000 1.000000
vt 0.625000 1.000000
vt 0.625000 1.000000
vt 0.875000 0.750000
vt 0.875000 0.750000
vt 0.875000 0.625000
vt 0.875000 0.625000
vt 0.875000 0.500000
vt 0.875000 0.500000
vt 0.375000 0.291667
vt 0.369792 0.375000
vt 0.500000 0.378472
vt 0.500000 0.291667
vt 0.630208 0.375000
vt 0.625000 0.291667
vt 0.500000 0.493056
vt 0.666667 0.458333
vt 0.333333 0.458333
vt 0.368056 0.625000
vt 0.333333 0.791667
vt 0.500000 0.756944
vt 0.666667 0.791667
vt 0.631945 0.625000
vt 0.369792 0.875000
vt 0.500000 0.871528
vt 0.630208 0.875000
vt 0.500000 0.958333
vt 0.625000 0.958333
vt 0.375000 0.958333
vt 0.166667 0.500000
vt 0.166667 0.625000
vt 0.253472 0.625000
vt 0.250000 0.494792
vt 0.250000 0.755208
vt 0.166667 0.750000
vt 0.751736 0.625000
vt 0.755208 0.494792
vt 0.875000 0.625000
vt 0.875000 0.500000
vt 0.755208 0.755208
vt 0.875000 0.750000
vt 0.125000 0.500000
vt 0.125000 0.500000
vt 0.125000 0.625000
vt 0.125000 0.625000
vt 0.125000 0.750000
vt 0.125000 0.750000
vt 0.625000 0.250000
vt 0.625000 0.244792
vt 0.500000 0.244792
vt 0.500000 0.250000
vt 0.375000 0.244792
vt 0.375000 0.250000
vt 0.500000 1.000000
vt 0.375000 1.000000
vt 0.375000 1.000000
vt 0.500000 1.000000
vt 0.625000 1.000000
vt 0.625000 1.000000
vn 0.4232 0.6714 -0.6084
vn -0.3120 0.7632 -0.5659
vn -0.7715 -0.4949 -0.3998
vn -0.7546 0.0006 -0.6561
vn 0.1699 0.0021 -0.9855
vn 0.3467 -0.5496 -0.7601
vn 0.9931 0.1176 -0.0032
vn 0.1602 -0.0005 0.9871
vn -0.0861 0.6443 0.7599
vn 0.8462 0.4544 0.2785
vn 0.9044 -0.0053 0.4267
vn -0.4611 -0.8785 0.1251
vn 0.4504 -0.8901 0.0704
vn 0.4141 -0.7495 0.5165
vn 0.3324 -0.7477 0.5749
vn -0.1297 0.7874 -0.6026
vn -0.3292 0.7491 -0.5749
vn 0.3968 0.9140 -0.0852
vn -0.2188 0.9758 -0.0033
vn -0.3578 -0.9321 0.0562
vn 0.4672 -0.8841 -0.0030
vn -0.9095 0.1458 -0.3894
vn -0.8904 -0.4277 -0.1557
vn 0.0052 0.3291 0.9443
vn 0.8413 -0.4151 -0.3462
vn 0.8303 -0.0051 -0.5573
vn -0.8523 -0.4875 -0.1898
vn 0.9593 -0.1026 0.2633
vn 0.4916 -0.7862 0.3744
vn -0.9352 0.0644 -0.3482
vn -0.4628 0.7968 -0.3885
vn -0.3197 -0.9379 0.1349
vn 0.3872 0.8947 -0.2225
vn 0.9214 0.3873 0.0329
vn -0.4232 0.6714 -0.6084
vn 0.3120 0.7632 -0.5659
vn 0.7715 -0.4949 -0.3998
vn 0.7546 0.0006 -0.6561
vn -0.1699 0.0021 -0.9855
vn -0.3467 -0.5496 -0.7601
vn -0.9931 0.1176 -0.0032
vn -0.1602 -0.0005 0.9871
vn 0.0861 0.6443 0.7599
vn -0.8462 0.4544 0.2785
vn -0.9044 -0.0053 0.4267
vn 0.4611 -0.8785 0.1251
vn -0.4504 -0.8901 0.0704
vn -0.4141 -0.7495 0.5165
vn -0.3324 -0.7477 0.5749
vn 0.1297 0.7874 -0.6026
vn 0.3292 0.7491 -0.5749
vn -0.3968 0.9140 -0.0852
vn 0.2188 0.9758 -0.0033
vn 0.3578 -0.9321 0.0562
vn -0.4672 -0.8841 -0.0030
vn 0.9095 0.1458 -0.3894
vn 0.8904 -0.4277 -0.1557
vn -0.0052 0.3291 0.9443
vn -0.8413 -0.4151 -0.3462
vn -0.8303 -0.0051 -0.5573
vn 0.8523 -0.4875 -0.1898
vn -0.9593 -0.1026 0.2633
vn -0.4916 -0.7862 0.3744
vn 0.9352 0.0644 -0.3482
vn 0.4628 0.7968 -0.3885
vn 0.3197 -0.9379 0.1349
vn -0.3872 0.8947 -0.2225
vn -0.9214 0.3873 0.0329
usemtl None.022
s off
f 54/62/133 55/63/133 56/64/133 57/65/133
f 55/63/134 58/66/134 59/67/134 56/64/134
f 60/68/135 61/69/135 62/70/135 63/71/135
f 61/69/136 64/72/136 65/73/136 62/70/136
f 62/70/137 65/73/137 66/74/137 67/75/137
f 63/71/138 62/70/138 67/75/138 68/76/138
f 67/75/139 66/74/139 69/77/139 70/78/139 71/79/139 72/80/139 73/81/139 68/76/139
f 72/80/140 71/79/140 74/82/140 75/83/140
f 71/79/141 70/78/141 76/84/141 74/82/141
f 74/82/142 76/84/142 77/85/142 78/86/142
f 75/83/143 74/82/143 78/86/143 79/87/143
f 60/88/144 63/89/144 80/90/144 81/91/144
f 63/89/145 68/76/145 73/81/145 80/90/145
f 80/90/146 73/81/146 72/80/146 75/92/146
f 81/91/147 80/90/147 75/92/147 79/93/147
f 66/74/148 65/94/148 82/95/148 69/77/148
f 65/94/149 64/96/149 83/97/149 82/95/149
f 82/95/150 83/97/150 77/98/150 76/99/150
f 69/77/151 82/95/151 76/99/151 70/78/151
f 84/100/152 85/101/152 86/102/152 87/103/152
f 85/101/153 88/104/153 89/105/153 86/102/153
f 58/106/154 90/107/154 91/108/154 59/109/154
f 90/107/155 84/110/155 87/111/155 91/108/155
f 87/103/156 86/102/156 89/112/156 92/113/156 57/65/156 56/64/156 59/109/156 91/108/156
f 88/114/157 93/115/157 92/113/157 89/112/157
f 93/115/158 54/116/158 57/117/158 92/113/158
f 84/110/159 90/107/159 61/69/159 60/68/159
f 78/86/160 93/115/160 88/114/160 79/87/160
f 79/93/161 88/104/161 85/101/161 81/91/161
f 61/69/162 90/107/162 58/106/162 64/72/162
f 64/96/163 58/66/163 55/63/163 83/97/163
f 81/91/164 85/101/164 84/100/164 60/88/164
f 83/97/165 55/63/165 54/62/165 77/98/165
f 54/116/166 93/115/166 78/86/166 77/85/166
f 94/118/167 95/119/167 96/120/167 97/121/167
f 97/121/168 96/120/168 98/122/168 99/123/168
f 100/124/169 101/125/169 102/126/169 103/127/169
f 103/127/170 102/126/170 104/128/170 105/129/170
f 102/126/171 106/130/171 107/131/171 104/128/171
f 101/125/172 108/132/172 106/130/172 102/126/172
f 106/130/173 108/132/173 109/133/173 110/134/173 111/135/173 112/136/173 113/137/173 107/131/173
f 110/134/174 114/138/174 115/139/174 111/135/174
f 111/135/175 115/139/175 116/140/175 112/136/175
f 115/139/176 117/141/176 118/142/176 116/140/176
f 114/138/177 119/143/177 117/141/177 115/139/177
f 100/144/178 120/145/178 121/146/178 101/147/178
f 101/147/179 121/146/179 109/133/179 108/132/179
f 121/146/180 114/148/180 110/134/180 109/133/180
f 120/145/181 119/149/181 114/148/181 121/146/181
f 107/131/182 113/137/182 122/150/182 104/151/182
f 104/151/183 122/150/183 123/152/183 105/153/183
f 122/150/184 116/154/184 118/155/184 123/152/184
f 113/137/185 112/136/185 116/154/185 122/150/185
f 124/156/186 125/157/186 126/158/186 127/159/186
f 127/159/187 126/158/187 128/160/187 129/161/187
f 99/162/188 98/163/188 130/164/188 131/165/188
f 131/165/189 130/164/189 125/166/189 124/167/189
f 125/157/190 130/164/190 98/163/190 96/120/190 95/119/190 132/168/190 128/169/190 126/158/190
f 129/170/191 128/169/191 132/168/191 133/171/191
f 133/171/192 132/168/192 95/172/192 94/173/192
f 124/167/193 100/124/193 103/127/193 131/165/193
f 117/141/194 119/143/194 129/170/194 133/171/194
f 119/149/195 120/145/195 127/159/195 129/161/195
f 103/127/196 105/129/196 99/162/196 131/165/196
f 105/153/197 123/152/197 97/121/197 99/123/197
f 120/145/198 100/144/198 124/156/198 127/159/198
f 123/152/199 118/155/199 94/118/199 97/121/199
f 94/173/200 118/142/200 117/141/200 133/171/200
