# Blender v3.1.2 OBJ File: ''
# www.blender.org
mtllib loot_color.mtl
o COLOR_ME.001_COLOR_ME.009
v -0.167070 0.382333 0.299083
v -0.132784 0.599468 0.314976
v -0.193237 0.631273 0.201374
v -0.250229 0.396362 0.108536
v -0.250800 0.733093 0.219680
v -0.205088 0.776712 0.052608
v -0.132784 0.670069 0.044558
v 0.020341 0.804132 -0.052418
v 0.020341 0.679391 0.010221
v -0.153171 0.387015 -0.016026
v -0.089944 0.384826 0.334869
v -0.131292 0.584422 0.376351
v -0.089944 0.315709 0.334869
v -0.169933 0.314310 0.292603
v -0.249779 -0.009343 0.402926
v -0.336377 -0.009343 0.275264
v -0.130053 1.092016 0.161404
v 0.020341 1.110745 0.089666
v 0.020341 0.403536 -0.053491
v -0.256796 0.312408 0.086618
v -0.408747 0.000741 -0.010004
v -0.156991 0.304236 -0.042447
v -0.257685 0.069287 -0.272550
v -0.221236 0.703991 0.331148
v -0.185667 0.979261 0.432630
v -0.184677 1.048455 0.328252
v 0.020341 0.344538 -0.107580
v 0.020341 0.262712 -0.266351
v 0.020341 1.189731 0.440748
v 0.020341 1.246340 0.249638
v 0.020341 1.097214 0.522596
v 0.207753 0.390630 0.299083
v 0.290911 0.388831 0.108536
v 0.233919 0.631273 0.201374
v 0.173467 0.599468 0.314976
v 0.173467 0.670069 0.044558
v 0.245770 0.776712 0.052608
v 0.291482 0.733093 0.219680
v 0.193853 0.387015 -0.016026
v 0.107821 0.384937 0.335248
v 0.171975 0.584422 0.376351
v 0.107821 0.305837 0.321482
v 0.223476 0.302244 0.276139
v 0.169175 -0.009343 0.402926
v 0.336659 -0.009343 0.252674
v 0.170735 1.092016 0.161404
v 0.449429 0.077152 -0.084359
v 0.297479 0.304877 0.086618
v 0.197674 0.304236 -0.042447
v 0.298368 0.248160 -0.272550
v 0.225359 1.048455 0.328252
v 0.226349 0.979261 0.432630
v 0.261919 0.703991 0.331148
vt 0.212628 0.442965
vt 0.240948 0.442965
vt 0.241169 0.511976
vt 0.205203 0.511976
vt 0.278639 0.511976
vt 0.278639 0.580987
vt 0.241213 0.580988
vt 0.278639 0.649999
vt 0.241137 0.646266
vt 0.205380 0.589754
vt 0.213331 0.963058
vt 0.241050 0.963058
vt 0.240948 0.995054
vt 0.212628 0.995054
vt 0.172039 0.963058
vt 0.171936 0.995054
vt 0.140616 0.963058
vt 0.140616 0.995054
vt 0.278639 0.580987
vt 0.278639 0.649999
vt 0.205380 0.649999
vt 0.140616 0.442965
vt 0.171936 0.442965
vt 0.172158 0.511976
vt 0.140616 0.511976
vt 0.172202 0.589754
vt 0.140616 0.580987
vt 0.278639 0.442965
vt 0.278639 0.442965
vt 0.278639 0.511976
vt 0.172202 0.649999
vt 0.140616 0.649999
vt 0.278639 0.511976
vt 0.278639 0.580987
vt 0.278639 0.442965
vt 0.212628 0.442965
vt 0.205203 0.511976
vt 0.241169 0.511976
vt 0.240948 0.442965
vt 0.241213 0.580988
vt 0.278639 0.580987
vt 0.278639 0.511976
vt 0.205380 0.589754
vt 0.213331 0.963058
vt 0.212628 0.995054
vt 0.240948 0.995054
vt 0.241050 0.963058
vt 0.172039 0.963058
vt 0.171936 0.995054
vt 0.140616 0.963058
vt 0.140616 0.995054
vt 0.278639 0.580987
vt 0.140616 0.442965
vt 0.140616 0.511976
vt 0.172158 0.511976
vt 0.171936 0.442965
vt 0.172202 0.589754
vt 0.140616 0.580987
vt 0.278639 0.511976
vt 0.278639 0.442965
vt 0.278639 0.442965
vn -0.8971 0.0765 0.4351
vn -0.8871 -0.2941 -0.3557
vn -0.3129 -0.2722 -0.9099
vn -0.2553 -0.9496 0.1817
vn -0.8899 -0.2957 -0.3474
vn 0.3959 -0.4845 -0.7801
vn -0.4660 -0.8238 0.3227
vn -0.2027 -0.2263 -0.9527
vn -0.2129 -0.1976 -0.9569
vn -0.8537 0.2610 -0.4506
vn -0.8556 0.2504 -0.4530
vn -0.7798 -0.0983 0.6183
vn -0.4520 -0.0238 0.8917
vn -0.4440 -0.0330 0.8954
vn -0.6709 0.3544 0.6514
vn -0.6690 0.3761 0.6411
vn -0.6612 0.3830 0.6451
vn 0.2250 0.7353 -0.6393
vn -0.3953 0.3252 -0.8590
vn 0.0678 0.5738 -0.8162
vn -0.8669 0.4175 0.2725
vn -0.2260 0.2193 -0.9491
vn -0.2160 0.2195 -0.9514
vn -0.2088 0.2237 -0.9520
vn -0.8754 0.3867 0.2902
vn -0.9191 -0.0165 0.3936
vn -0.7624 0.2235 -0.6072
vn -0.7626 0.2234 -0.6070
vn -0.7625 0.2335 -0.6034
vn -0.7312 0.5658 -0.3812
vn -0.7364 0.5644 -0.3731
vn -0.7443 0.5558 -0.3704
vn -0.5599 -0.0997 0.8226
vn -0.4371 0.8413 -0.3181
vn -0.8203 0.2402 0.5191
vn -0.9757 0.0825 0.2031
vn -0.6833 0.5616 0.4666
vn -0.5251 0.8476 0.0766
vn -0.9420 0.2494 -0.2244
vn -0.9612 0.2197 -0.1666
vn -0.3079 0.4771 -0.8232
vn -0.3170 0.4748 -0.8210
vn -0.3182 0.4750 -0.8204
vn -0.3208 0.4814 -0.8157
vn -0.4489 0.7556 -0.4769
vn -0.4495 0.7398 -0.5007
vn -0.4539 0.7426 -0.4924
vn -0.4440 0.7490 -0.4918
vn -0.6375 0.7520 0.1676
vn -0.6569 0.7506 0.0710
vn -0.7166 0.6920 0.0870
vn -0.7088 0.6694 0.2224
vn -0.2128 0.3163 -0.9245
vn -0.3011 0.7376 -0.6044
vn -0.4419 0.6094 -0.6583
vn -0.5974 0.6046 0.5268
vn -0.7601 0.2265 0.6091
vn -0.5237 0.2885 0.8016
vn -0.6172 0.5456 0.5669
vn 0.2773 -0.7194 -0.6368
vn 0.0766 -0.9656 -0.2485
vn -0.9035 -0.3509 0.2462
vn -0.9035 -0.3511 0.2459
vn -0.9610 -0.2727 -0.0460
vn -0.9611 -0.2713 -0.0521
vn 0.2791 -0.7235 -0.6314
vn 0.8986 0.0777 0.4319
vn 0.8871 -0.2941 -0.3557
vn 0.8899 -0.2957 -0.3474
vn 0.2553 -0.9496 0.1817
vn 0.3129 -0.2722 -0.9099
vn -0.3959 -0.4845 -0.7801
vn 0.2129 -0.1976 -0.9569
vn 0.2027 -0.2263 -0.9527
vn 0.4660 -0.8238 0.3227
vn 0.8574 0.2565 -0.4462
vn 0.8592 0.2459 -0.4486
vn 0.7011 -0.1486 0.6974
vn 0.3584 -0.1598 0.9198
vn 0.3500 -0.1691 0.9214
vn 0.5588 0.1987 0.8052
vn 0.5553 0.2286 0.7996
vn 0.5628 0.2208 0.7965
vn -0.2250 0.7353 -0.6393
vn 0.8669 0.4175 0.2725
vn -0.0678 0.5738 -0.8162
vn 0.3953 0.3252 -0.8590
vn 0.2260 0.2193 -0.9491
vn 0.2088 0.2237 -0.9520
vn 0.2160 0.2195 -0.9514
vn 0.8812 0.3021 0.3637
vn 0.9239 0.0200 0.3821
vn 0.7693 0.2217 -0.5992
vn 0.7694 0.2316 -0.5954
vn 0.7696 0.2215 -0.5989
vn 0.6545 0.7471 -0.1164
vn 0.6700 0.7340 -0.1114
vn 0.6589 0.7442 -0.1092
vn 0.5599 -0.0997 0.8226
vn 0.9757 0.0825 0.2031
vn 0.8203 0.2402 0.5191
vn 0.4371 0.8413 -0.3181
vn 0.6833 0.5616 0.4666
vn 0.9612 0.2197 -0.1666
vn 0.9420 0.2494 -0.2244
vn 0.5251 0.8476 0.0766
vn 0.3079 0.4771 -0.8232
vn 0.3208 0.4814 -0.8157
vn 0.3181 0.4750 -0.8205
vn 0.3170 0.4748 -0.8210
vn 0.1532 0.9489 -0.2760
vn 0.1487 0.9441 -0.2942
vn 0.1610 0.9414 -0.2964
vn 0.1546 0.9401 -0.3038
vn 0.6375 0.7520 0.1676
vn 0.7088 0.6694 0.2224
vn 0.7166 0.6920 0.0870
vn 0.6569 0.7506 0.0710
vn 0.2128 0.3163 -0.9245
vn 0.4419 0.6094 -0.6583
vn 0.3011 0.7376 -0.6044
vn 0.5974 0.6046 0.5268
vn 0.6172 0.5456 0.5669
vn 0.5237 0.2885 0.8016
vn 0.7601 0.2265 0.6091
vn -0.2773 -0.7194 -0.6368
vn 0.9035 -0.3511 0.2459
vn 0.9035 -0.3509 0.2462
vn -0.0766 -0.9656 -0.2485
vn 0.9610 -0.2727 -0.0460
vn -0.2791 -0.7235 -0.6314
vn 0.9611 -0.2713 -0.0521
usemtl None.013
s off
f 1/1/1 2/2/1 3/3/1 4/4/1
f 3/3/2 5/5/3 6/6/4 7/7/5
f 6/6/6 8/8/7 9/9/8 7/7/9
f 4/4/10 3/3/10 7/7/11 10/10/10
f 11/11/12 12/12/12 2/13/12 1/14/12
f 13/15/13 11/11/14 1/14/14 14/16/14
f 15/17/15 13/15/16 14/16/17 16/18/17
f 6/6/18 17/19/19 18/20/20 8/8/21
f 10/10/22 7/7/23 9/9/24 19/21/22
f 16/22/25 14/23/25 20/24/25 21/25/25
f 14/23/26 1/1/26 4/4/26 20/24/26
f 20/24/27 4/4/27 10/10/28 22/26/29
f 21/25/30 20/24/30 22/26/31 23/27/32
f 5/5/33 24/28/34 25/29/35 26/30/36
f 6/6/37 5/5/38 26/30/39 17/19/40
f 22/26/41 10/10/42 19/21/43 27/31/44
f 23/27/45 22/26/46 27/31/47 28/32/48
f 17/19/49 26/30/50 29/33/51 30/34/52
f 18/20/53 17/19/54 30/34/55
f 26/30/56 25/29/57 31/35/58 29/33/59
f 24/28/60 5/5/61 3/3/62 2/2/63
f 2/13/64 12/12/65 24/28/66
f 32/36/67 33/37/67 34/38/67 35/39/67
f 34/38/68 36/40/69 37/41/70 38/42/71
f 37/41/72 36/40/73 9/9/74 8/8/75
f 33/37/76 39/43/76 36/40/77 34/38/76
f 40/44/78 32/45/78 35/46/78 41/47/78
f 42/48/79 43/49/80 32/45/80 40/44/80
f 44/50/81 45/51/82 43/49/82 42/48/83
f 37/41/84 8/8/85 18/20/86 46/52/87
f 39/43/88 19/21/88 9/9/89 36/40/90
f 45/53/91 47/54/91 48/55/91 43/56/91
f 43/56/92 48/55/92 33/37/92 32/36/92
f 48/55/93 49/57/94 39/43/95 33/37/93
f 47/54/96 50/58/97 49/57/98 48/55/96
f 38/42/99 51/59/100 52/60/101 53/61/102
f 37/41/103 46/52/104 51/59/105 38/42/106
f 49/57/107 27/31/108 19/21/109 39/43/110
f 50/58/111 28/32/112 27/31/113 49/57/114
f 46/52/115 30/34/116 29/33/117 51/59/118
f 18/20/119 30/34/120 46/52/121
f 51/59/122 29/33/123 31/35/124 52/60/125
f 53/61/126 35/39/127 34/38/128 38/42/129
f 35/46/130 53/61/131 41/47/132
o COLOR_ME.010
v 0.195168 0.395634 0.378478
v 0.143484 0.412899 0.425790
v 0.198303 0.465388 0.460063
v 0.230727 0.434213 0.391932
v 0.322457 0.400400 0.407911
v 0.323641 0.412622 0.506961
v 0.340579 0.329925 0.499538
v 0.328594 0.346451 0.401719
v 0.203658 0.559410 0.133569
v 0.200623 0.614314 0.169659
v 0.276457 0.577533 0.193155
v 0.272352 0.519442 0.166237
v 0.243360 0.470896 0.183004
v 0.198023 0.510156 0.167797
v 0.191376 0.485802 0.215500
v 0.185487 0.523710 0.270650
v 0.183298 0.581479 0.300612
v 0.188086 0.627869 0.272512
v 0.195580 0.655085 0.218680
v 0.266078 0.356060 0.248958
v 0.225134 0.390474 0.275194
v 0.188610 0.491894 0.279110
v 0.208463 0.457160 0.228749
v 0.251340 0.479723 0.318727
v 0.283278 0.438335 0.404387
v 0.304195 0.485876 0.312278
v 0.256604 0.612266 0.243515
v 0.201306 0.341685 0.372286
v 0.216919 0.441521 0.304389
v 0.353354 0.400416 0.256848
v 0.345139 0.451463 0.286042
v 0.284013 0.281111 0.465147
v 0.293036 0.307872 0.388264
v 0.273190 0.474814 0.495541
v 0.210874 0.268010 0.429788
v 0.158675 0.333876 0.418250
v 0.240484 0.303749 0.375810
v 0.192716 0.549985 0.306028
v 0.221707 0.598531 0.289261
v 0.318934 0.362214 0.242510
vt 0.625000 0.973571
vt 0.625000 1.000000
vt 0.500000 1.000000
vt 0.500000 0.973570
vt 0.151430 0.625000
vt 0.125000 0.625000
vt 0.125000 0.500000
vt 0.151430 0.500000
vt 0.359763 0.484763
vt 0.394485 0.625000
vt 0.272385 0.625000
vt 0.272385 0.500000
vt 0.500000 0.397385
vt 0.500000 0.519485
vt 0.375000 0.397385
vt 0.640237 0.484763
vt 0.605515 0.625000
vt 0.640237 0.765237
vt 0.500000 0.730515
vt 0.359763 0.765237
vt 0.782034 0.500000
vt 0.782034 0.625000
vt 0.727615 0.625000
vt 0.727615 0.500000
vt 0.500000 0.907034
vt 0.375000 0.973571
vt 0.375000 0.907034
vt 0.272385 0.750000
vt 0.848571 0.625000
vt 0.848570 0.750000
vt 0.782034 0.750000
vt 0.217966 0.500000
vt 0.217966 0.625000
vt 0.375000 0.276430
vt 0.375000 0.250000
vt 0.500000 0.250000
vt 0.500000 0.276430
vt 0.375000 1.000000
vt 0.875000 0.500000
vt 0.875000 0.625000
vt 0.848570 0.500000
vt 0.625000 0.250000
vt 0.625000 0.276430
vt 0.875000 0.750000
vt 0.750000 0.500000
vt 0.375000 0.375000
vt 0.250000 0.750000
vt 0.625000 0.875000
vt 0.727615 0.750000
vt 0.625000 0.852615
vt 0.500000 0.852615
vt 0.217966 0.750000
vt 0.625000 0.342966
vt 0.625000 0.397385
vt 0.500000 0.342966
vt 0.625000 0.907034
vt 0.375000 0.852615
vt 0.375000 0.342966
vt 0.125000 0.750000
vt 0.151430 0.750000
vn -0.3998 0.7042 -0.5867
vn 0.9831 0.1722 -0.0620
vn 0.5124 0.4145 -0.7521
vn 0.0407 -0.4732 -0.8800
vn -0.9919 0.0270 -0.1245
vn -0.8561 -0.4219 -0.2986
vn -0.1121 0.8777 0.4659
vn 0.5624 0.7202 -0.4063
vn -0.9472 -0.3204 -0.0105
vn -0.9602 -0.0380 -0.2767
vn 0.9776 0.0662 0.1999
vn 0.7242 -0.6663 -0.1774
vn 0.0449 0.9237 -0.3804
vn -0.5344 -0.5621 -0.6312
vn 0.2577 -0.8993 -0.3534
vn -0.7046 -0.0399 -0.7084
vn -0.4054 -0.1638 0.8993
vn -0.9497 -0.1252 0.2870
vn 0.0929 0.3982 0.9126
vn 0.8350 0.5126 0.2000
vn -0.3476 -0.5177 -0.7817
vn -0.7583 0.6288 0.1721
vn 0.3845 0.7846 0.4864
vn 0.3869 -0.3072 -0.8695
vn -0.5161 -0.6882 -0.5099
vn 0.7483 0.6502 -0.1315
vn 0.7541 -0.6475 -0.1099
vn -0.0966 0.0984 0.9904
vn 0.1105 -0.9325 -0.3439
vn 0.6711 0.6118 0.4187
vn 0.8841 0.2396 -0.4012
vn -0.8581 -0.2600 0.4428
vn 0.3813 0.4448 0.8105
vn -0.6704 -0.6096 -0.4231
usemtl None.013
s off
f 54/62/133 55/63/133 56/64/133 57/65/133
f 58/66/134 59/67/134 60/68/134 61/69/134
f 62/70/135 63/71/135 64/72/135 65/73/135
f 66/74/136 67/75/136 62/70/136 65/76/136
f 67/75/137 68/77/137 69/78/137 70/79/137 71/80/137 72/81/137 63/71/137 62/70/137
f 73/82/138 74/83/138 75/84/138 76/85/138
f 77/86/139 57/65/139 78/87/139 79/88/139
f 64/72/140 63/71/140 72/81/140 80/89/140
f 76/85/141 75/84/141 69/78/141 68/77/141
f 74/83/142 81/90/142 54/91/142 82/92/142
f 83/93/143 84/94/143 58/66/143 61/69/143
f 61/95/144 60/96/144 85/97/144 86/98/144
f 57/65/145 56/64/145 87/99/145 78/87/145
f 88/100/146 89/101/146 81/90/146 90/102/146
f 86/98/147 85/97/147 88/103/147 90/104/147
f 81/90/148 89/101/148 55/105/148 54/91/148
f 89/106/149 88/103/149 85/107/149 60/68/149 59/108/149 87/99/149 56/109/149 55/105/149
f 69/78/150 75/84/150 91/110/150 70/79/150
f 70/79/151 91/111/151 92/112/151 71/80/151
f 84/94/152 64/72/152 80/89/152 79/113/152
f 73/114/153 76/115/153 66/74/153 93/116/153
f 82/117/154 54/62/154 57/65/154 77/86/154
f 71/80/155 92/112/155 80/118/155 72/81/155
f 93/116/156 66/74/156 65/76/156 83/119/156
f 76/115/157 68/77/157 67/75/157 66/74/157
f 87/120/158 59/67/158 58/66/158 78/121/158
f 86/98/159 93/116/159 83/119/159 61/95/159
f 91/111/160 82/117/160 77/86/160 92/112/160
f 90/104/161 73/114/161 93/116/161 86/98/161
f 58/66/162 84/94/162 79/113/162 78/121/162
f 65/73/163 64/72/163 84/94/163 83/93/163
f 75/84/164 74/83/164 82/92/164 91/110/164
f 92/112/165 77/86/165 79/88/165 80/118/165
f 90/102/166 81/90/166 74/83/166 73/82/166
o COLOR_ME.002_COLOR_ME.009
v -0.217640 0.338211 0.337019
v -0.257701 0.368522 0.374437
v -0.190337 0.365896 0.446413
v -0.142460 0.328423 0.384346
v -0.308758 0.353484 0.407466
v -0.253486 0.343975 0.501771
v -0.341604 0.328038 0.253343
v -0.367633 0.384790 0.271095
v -0.226633 0.577464 0.080780
v -0.227668 0.510654 0.089304
v -0.354461 0.445071 0.283151
v -0.227668 0.630464 0.120584
v -0.143267 0.644739 0.143431
v -0.137373 0.601010 0.119507
v -0.131388 0.542699 0.117232
v -0.147401 0.646336 0.206194
v -0.147396 0.615048 0.255607
v -0.142545 0.563809 0.260056
v -0.135516 0.513007 0.229407
v -0.132517 0.518484 0.173369
v -0.222613 0.531053 0.258549
v -0.224744 0.477083 0.217889
v -0.224744 0.596893 0.249169
v -0.248612 0.454718 0.266588
v -0.223898 0.397731 0.250214
v -0.238385 0.337215 0.239534
v -0.224623 0.471447 0.148044
v -0.287830 0.310639 0.241108
v -0.224623 0.637070 0.191285
v -0.303700 0.471882 0.280200
v -0.335716 0.232280 0.392596
v -0.298020 0.202235 0.358339
v -0.243350 0.147253 0.425247
v -0.285016 0.184410 0.477086
v -0.249328 0.217542 0.328472
v -0.187926 0.170433 0.378290
v -0.338878 0.295696 0.412647
v -0.288317 0.266688 0.510366
v -0.145371 0.246460 0.361293
v -0.216842 0.275063 0.320130
vt 0.875000 0.750000
vt 0.875000 0.625000
vt 0.875000 0.625000
vt 0.875000 0.750000
vt 0.875000 0.500000
vt 0.875000 0.500000
vt 0.375000 0.271461
vt 0.500000 0.271461
vt 0.500000 0.378472
vt 0.369792 0.375000
vt 0.625000 0.271461
vt 0.630208 0.375000
vt 0.666667 0.458333
vt 0.500000 0.493056
vt 0.333333 0.458333
vt 0.631945 0.625000
vt 0.666667 0.791667
vt 0.500000 0.756944
vt 0.333333 0.791667
vt 0.368056 0.625000
vt 0.500000 0.871528
vt 0.369792 0.875000
vt 0.630208 0.875000
vt 0.625000 0.978539
vt 0.436454 0.957144
vt 0.280245 0.940082
vt 0.146461 0.500000
vt 0.250000 0.494792
vt 0.253472 0.625000
vt 0.146461 0.625000
vt 0.250000 0.755208
vt 0.146461 0.750000
vt 0.755208 0.494792
vt 0.751736 0.625000
vt 0.875000 0.500000
vt 0.875000 0.625000
vt 0.875000 0.750000
vt 0.755208 0.755208
vt 0.125000 0.500000
vt 0.125000 0.625000
vt 0.125000 0.625000
vt 0.125000 0.500000
vt 0.125000 0.750000
vt 0.125000 0.750000
vt 0.625000 0.250000
vt 0.500000 0.250000
vt 0.500000 0.244792
vt 0.625000 0.244792
vt 0.375000 0.250000
vt 0.375000 0.244792
vt 0.375000 1.000000
vt 0.500000 1.000000
vt 0.375000 1.000000
vt 0.500000 1.000000
vt 0.625000 1.000000
vt 0.625000 1.000000
vn 0.3361 0.8897 -0.3090
vn -0.1645 0.9675 0.1920
vn -0.7522 -0.1035 -0.6508
vn -0.8840 0.2696 -0.3820
vn 0.1699 0.5506 -0.8173
vn 0.3467 -0.0331 -0.9374
vn 0.9931 0.0995 0.0629
vn 0.1602 -0.5503 0.8195
vn -0.0861 0.1118 0.9900
vn 0.2787 0.0062 0.9604
vn 0.9819 -0.0624 -0.1788
vn 0.0379 -0.6113 -0.7905
vn 0.4504 -0.7784 -0.4373
vn 0.4141 -0.9102 0.0114
vn 0.8268 -0.3722 -0.4217
vn -0.1297 0.9896 -0.0619
vn -0.7314 0.6251 0.2726
vn -0.2871 0.3976 0.8715
vn -0.2188 0.8122 0.5408
vn -0.6695 -0.7419 -0.0380
vn -0.1282 -0.8062 -0.5776
vn -0.7586 0.4159 0.5015
vn -0.8900 -0.1910 0.4140
vn 0.6853 -0.2330 0.6900
vn 0.3718 -0.3704 -0.8512
vn 0.5452 0.2151 -0.8102
vn -0.9734 -0.2272 -0.0295
vn 0.8250 -0.3190 -0.4665
vn 0.0503 -0.6723 -0.7386
vn -0.8535 0.2876 0.4345
vn -0.0611 0.7320 0.6786
vn -0.5859 -0.6292 -0.5107
vn 0.5890 0.6063 0.5342
vn 0.9797 0.1913 0.0605
usemtl None.013
s off
f 94/122/167 95/123/167 96/124/167 97/125/167
f 95/123/168 98/126/168 99/127/168 96/124/168
f 100/128/169 101/129/169 102/130/169 103/131/169
f 101/129/170 104/132/170 105/133/170 102/130/170
f 102/130/171 105/133/171 106/134/171 107/135/171
f 103/131/172 102/130/172 107/135/172 108/136/172
f 107/135/173 106/134/173 109/137/173 110/138/173 111/139/173 112/140/173 113/141/173 108/136/173
f 112/140/174 111/139/174 114/142/174 115/143/174
f 111/139/175 110/138/175 116/144/175 114/142/175
f 114/142/176 116/144/176 117/145/176 118/146/176
f 115/143/177 114/142/177 118/146/177 119/147/177
f 100/148/178 103/149/178 120/150/178 121/151/178
f 103/149/179 108/136/179 113/141/179 120/150/179
f 120/150/180 113/141/180 112/140/180 115/152/180
f 121/151/181 120/150/181 115/152/181 119/153/181
f 106/134/182 105/154/182 122/155/182 109/137/182
f 105/154/183 104/156/183 123/157/183 122/155/183
f 122/155/184 123/157/184 117/158/184 116/159/184
f 109/137/185 122/155/185 116/159/185 110/138/185
f 124/160/186 125/161/186 126/162/186 127/163/186
f 125/161/187 128/164/187 129/165/187 126/162/187
f 98/166/188 130/167/188 131/168/188 99/169/188
f 130/167/189 124/170/189 127/171/189 131/168/189
f 127/163/190 126/162/190 129/172/190 132/173/190 97/125/190 96/124/190 99/169/190 131/168/190
f 128/174/191 133/175/191 132/173/191 129/172/191
f 133/175/192 94/176/192 97/177/192 132/173/192
f 124/170/193 130/167/193 101/129/193 100/128/193
f 118/146/194 133/175/194 128/174/194 119/147/194
f 119/153/195 128/164/195 125/161/195 121/151/195
f 101/129/196 130/167/196 98/166/196 104/132/196
f 104/156/197 98/126/197 95/123/197 123/157/197
f 121/151/198 125/161/198 124/160/198 100/148/198
f 123/157/199 95/123/199 94/122/199 117/158/199
f 94/176/200 133/175/200 118/146/200 117/145/200
