# Blender v3.1.2 OBJ File: ''
# www.blender.org
mtllib shoot_color.mtl
o COLOR_ME.030
v 0.394619 0.511117 -0.112311
v 0.390050 0.440075 -0.124140
v 0.468511 0.434769 -0.096745
v 0.441979 0.511228 -0.086029
v 0.507100 0.577176 -0.121003
v 0.569792 0.512139 -0.163448
v 0.549315 0.561741 -0.229033
v 0.489339 0.607041 -0.163182
v 0.222631 0.845317 0.059123
v 0.223705 0.808169 0.113391
v 0.317051 0.789424 0.084021
v 0.308077 0.815849 0.026254
v 0.284162 0.794065 -0.023060
v 0.222457 0.811531 0.009246
v 0.222735 0.763813 -0.015968
v 0.223834 0.707702 0.020959
v 0.224869 0.676688 0.078201
v 0.225082 0.704339 0.125105
v 0.224765 0.758193 0.153291
v 0.394619 0.580718 -0.187536
v 0.376858 0.540982 -0.154490
v 0.251293 0.688006 -0.004461
v 0.260252 0.742089 -0.038097
v 0.284183 0.683365 0.102620
v 0.489339 0.537440 -0.087956
v 0.308092 0.735340 0.117658
v 0.260268 0.661581 0.053307
v 0.470770 0.564445 -0.253298
v 0.441979 0.606930 -0.189465
v 0.547539 0.459781 -0.105941
v 0.391826 0.542035 -0.247231
v 0.369490 0.487075 -0.186595
vt 0.625000 0.973571
vt 0.625000 1.000000
vt 0.500000 1.000000
vt 0.500000 0.973570
vt 0.151430 0.625000
vt 0.125000 0.625000
vt 0.125000 0.500000
vt 0.151430 0.500000
vt 0.359763 0.484763
vt 0.394485 0.625000
vt 0.272385 0.625000
vt 0.272385 0.500000
vt 0.500000 0.397385
vt 0.500000 0.519485
vt 0.375000 0.397385
vt 0.640237 0.484763
vt 0.605515 0.625000
vt 0.640237 0.765237
vt 0.500000 0.730515
vt 0.359763 0.765237
vt 0.848570 0.500000
vt 0.848571 0.625000
vt 0.727615 0.625000
vt 0.727615 0.500000
vt 0.500000 0.852615
vt 0.375000 0.973571
vt 0.375000 0.852615
vt 0.272385 0.750000
vt 0.848570 0.750000
vt 0.727615 0.750000
vt 0.375000 0.276430
vt 0.375000 0.250000
vt 0.500000 0.250000
vt 0.500000 0.276430
vt 0.375000 1.000000
vt 0.875000 0.500000
vt 0.875000 0.625000
vt 0.625000 0.250000
vt 0.625000 0.276430
vt 0.875000 0.750000
vt 0.750000 0.500000
vt 0.375000 0.375000
vt 0.250000 0.750000
vt 0.625000 0.875000
vt 0.625000 0.852615
vt 0.151430 0.750000
vt 0.625000 0.397385
vt 0.125000 0.750000
vn -0.3916 -0.1957 0.8991
vn 0.7474 0.6330 0.2016
vn 0.3721 0.8212 0.4326
vn 0.0553 0.8653 -0.4982
vn -0.9999 -0.0120 0.0116
vn -0.8202 -0.1573 -0.5500
vn 0.3859 -0.4835 0.7857
vn 0.4002 0.5084 0.7624
vn -0.6889 -0.3554 -0.6318
vn -0.8046 -0.5830 -0.1131
vn 0.7976 0.5912 0.1196
vn 0.1994 0.8694 -0.4520
vn 0.1317 -0.1110 0.9851
vn -0.9551 0.2548 -0.1513
vn -0.3271 0.7567 -0.5661
vn -0.9445 -0.0249 0.3276
vn 0.1677 -0.7604 -0.6274
vn -0.6347 -0.7120 -0.3004
vn -0.0966 -0.8753 0.4739
vn 0.8092 0.1694 0.5625
vn -0.3466 0.4536 -0.8211
vn -0.2860 -0.8141 0.5055
vn 0.2328 -0.4118 0.8811
vn 0.3353 0.7722 -0.5397
vn -0.3046 0.4178 -0.8560
vn 0.6996 0.3228 0.6374
usemtl None.011
s off
f 1/1/1 2/2/1 3/3/1 4/4/1
f 5/5/2 6/6/2 7/7/2 8/8/2
f 9/9/3 10/10/3 11/11/3 12/12/3
f 13/13/4 14/14/4 9/9/4 12/15/4
f 14/14/5 15/16/5 16/17/5 17/18/5 18/19/5 19/20/5 10/10/5 9/9/5
f 20/21/6 21/22/6 22/23/6 23/24/6
f 24/25/7 4/4/7 25/26/7 26/27/7
f 11/11/8 10/10/8 19/20/8 26/28/8
f 23/24/9 22/23/9 16/17/9 15/16/9
f 22/23/10 21/22/10 1/29/10 27/30/10
f 12/12/11 11/11/11 5/5/11 8/8/11
f 8/31/12 7/32/12 28/33/12 29/34/12
f 4/4/13 3/3/13 30/35/13 25/26/13
f 31/36/14 32/37/14 21/22/14 20/21/14
f 29/34/15 28/33/15 31/38/15 20/39/15
f 21/22/16 32/37/16 2/40/16 1/29/16
f 32/41/17 31/38/17 28/42/17 7/7/17 6/43/17 30/35/17 3/44/17 2/40/17
f 16/17/18 22/23/18 27/30/18 17/18/18
f 17/18/19 27/45/19 24/25/19 18/19/19
f 5/5/20 11/11/20 26/28/20 25/46/20
f 20/39/21 23/47/21 13/13/21 29/34/21
f 27/45/22 1/1/22 4/4/22 24/25/22
f 18/19/23 24/25/23 26/27/23 19/20/23
f 29/34/24 13/13/24 12/15/24 8/31/24
f 23/47/25 15/16/25 14/14/25 13/13/25
f 30/48/26 6/6/26 5/5/26 25/46/26
o COLOR_ME.002_COLOR_ME.002
v -0.388152 0.739153 0.249389
v -0.437757 0.762589 0.219158
v -0.479623 0.782592 0.306178
v -0.404228 0.751754 0.336398
v -0.487362 0.739153 0.188928
v -0.554451 0.751754 0.274831
v -0.334168 0.609659 0.023939
v -0.354340 0.666235 0.002973
v -0.205618 0.732430 -0.022953
v -0.206653 0.669940 0.002172
v -0.366011 0.724786 0.023939
v -0.206653 0.793766 0.002172
v -0.122253 0.813349 0.020673
v -0.116358 0.764995 0.008570
v -0.110374 0.708000 0.021100
v -0.126387 0.830748 0.080997
v -0.126381 0.812958 0.136710
v -0.121531 0.764505 0.153959
v -0.114502 0.707608 0.137137
v -0.111502 0.698751 0.081532
v -0.201599 0.732430 0.160775
v -0.203730 0.669940 0.135068
v -0.203730 0.793766 0.135068
v -0.343342 0.730052 0.135759
v -0.323171 0.673476 0.156725
v -0.311500 0.614925 0.135759
v -0.203609 0.646843 0.068911
v -0.316863 0.590706 0.079849
v -0.203609 0.818016 0.068911
v -0.360647 0.749005 0.079849
v -0.483550 0.614164 0.189986
v -0.437757 0.590728 0.219158
v -0.479623 0.556622 0.306178
v -0.543216 0.587653 0.277949
v -0.391964 0.614164 0.248331
v -0.415463 0.587653 0.333279
v -0.503343 0.676659 0.178318
v -0.575348 0.669607 0.266138
v -0.383899 0.669607 0.346217
v -0.372171 0.676659 0.259998
vt 0.875000 0.750000
vt 0.875000 0.625000
vt 0.875000 0.625000
vt 0.875000 0.750000
vt 0.875000 0.500000
vt 0.875000 0.500000
vt 0.375000 0.291667
vt 0.500000 0.291667
vt 0.500000 0.378472
vt 0.369792 0.375000
vt 0.625000 0.291667
vt 0.630208 0.375000
vt 0.666667 0.458333
vt 0.500000 0.493056
vt 0.333333 0.458333
vt 0.631945 0.625000
vt 0.666667 0.791667
vt 0.500000 0.756944
vt 0.333333 0.791667
vt 0.368056 0.625000
vt 0.500000 0.871528
vt 0.369792 0.875000
vt 0.630208 0.875000
vt 0.625000 0.958333
vt 0.500000 0.958333
vt 0.375000 0.958333
vt 0.166667 0.500000
vt 0.250000 0.494792
vt 0.253472 0.625000
vt 0.166667 0.625000
vt 0.250000 0.755208
vt 0.166667 0.750000
vt 0.755208 0.494792
vt 0.751736 0.625000
vt 0.875000 0.500000
vt 0.875000 0.625000
vt 0.875000 0.750000
vt 0.755208 0.755208
vt 0.125000 0.500000
vt 0.125000 0.625000
vt 0.125000 0.625000
vt 0.125000 0.500000
vt 0.125000 0.750000
vt 0.125000 0.750000
vt 0.625000 0.250000
vt 0.500000 0.250000
vt 0.500000 0.244792
vt 0.625000 0.244792
vt 0.375000 0.250000
vt 0.375000 0.244792
vt 0.375000 1.000000
vt 0.500000 1.000000
vt 0.375000 1.000000
vt 0.500000 1.000000
vt 0.625000 1.000000
vt 0.625000 1.000000
vn 0.4117 0.9107 -0.0336
vn -0.2393 0.9155 -0.3234
vn 0.0040 -0.3604 -0.9328
vn -0.2799 0.3185 -0.9056
vn 0.1699 0.3263 -0.9299
vn 0.3467 -0.2688 -0.8986
vn 0.9931 0.1121 0.0357
vn 0.1602 -0.3254 0.9319
vn -0.0861 0.3583 0.9296
vn -0.1692 0.3349 0.9269
vn 0.1576 -0.3444 0.9255
vn 0.3673 -0.8595 -0.3556
vn 0.4504 -0.8636 -0.2265
vn 0.4141 -0.8778 0.2410
vn 0.4403 -0.8434 0.3080
vn -0.1297 0.9419 -0.3099
vn -0.4067 0.8588 -0.3115
vn -0.3700 0.8582 0.3558
vn -0.2188 0.9225 0.3180
vn -0.2129 -0.8784 -0.4278
vn 0.4889 -0.8642 -0.1188
vn -0.7471 0.2715 -0.6068
vn -0.7145 -0.3548 -0.6030
vn -0.3868 -0.0000 0.9222
vn 0.9284 -0.3509 0.1223
vn 0.9546 0.2601 0.1449
vn -0.6994 -0.3975 -0.5939
vn 0.8405 -0.1929 0.5063
vn 0.3577 -0.8898 0.2833
vn -0.7622 0.1887 -0.6192
vn -0.3219 0.9004 -0.2927
vn -0.2917 -0.9248 -0.2444
vn 0.4165 0.9012 0.1199
vn 0.8648 0.3564 0.3538
usemtl None.011
s off
f 33/49/27 34/50/27 35/51/27 36/52/27
f 34/50/28 37/53/28 38/54/28 35/51/28
f 39/55/29 40/56/29 41/57/29 42/58/29
f 40/56/30 43/59/30 44/60/30 41/57/30
f 41/57/31 44/60/31 45/61/31 46/62/31
f 42/58/32 41/57/32 46/62/32 47/63/32
f 46/62/33 45/61/33 48/64/33 49/65/33 50/66/33 51/67/33 52/68/33 47/63/33
f 51/67/34 50/66/34 53/69/34 54/70/34
f 50/66/35 49/65/35 55/71/35 53/69/35
f 53/69/36 55/71/36 56/72/36 57/73/36
f 54/70/37 53/69/37 57/73/37 58/74/37
f 39/75/38 42/76/38 59/77/38 60/78/38
f 42/76/39 47/63/39 52/68/39 59/77/39
f 59/77/40 52/68/40 51/67/40 54/79/40
f 60/78/41 59/77/41 54/79/41 58/80/41
f 45/61/42 44/81/42 61/82/42 48/64/42
f 44/81/43 43/83/43 62/84/43 61/82/43
f 61/82/44 62/84/44 56/85/44 55/86/44
f 48/64/45 61/82/45 55/86/45 49/65/45
f 63/87/46 64/88/46 65/89/46 66/90/46
f 64/88/47 67/91/47 68/92/47 65/89/47
f 37/93/48 69/94/48 70/95/48 38/96/48
f 69/94/49 63/97/49 66/98/49 70/95/49
f 66/90/50 65/89/50 68/99/50 71/100/50 36/52/50 35/51/50 38/96/50 70/95/50
f 67/101/51 72/102/51 71/100/51 68/99/51
f 72/102/52 33/103/52 36/104/52 71/100/52
f 63/97/53 69/94/53 40/56/53 39/55/53
f 57/73/54 72/102/54 67/101/54 58/74/54
f 58/80/55 67/91/55 64/88/55 60/78/55
f 40/56/56 69/94/56 37/93/56 43/59/56
f 43/83/57 37/53/57 34/50/57 62/84/57
f 60/78/58 64/88/58 63/87/58 39/75/58
f 62/84/59 34/50/59 33/49/59 56/85/59
f 33/103/60 72/102/60 57/73/60 56/72/60
