# Blender v3.0.0 OBJ File: 'Boy_rigged.blend'
# www.blender.org
mtllib Stump.mtl
o Stump_01.004_Cylinder.092
v -0.108116 0.865626 0.371700
v -0.125517 0.957328 0.328214
v -0.075599 0.934285 0.350748
v -0.071941 0.912070 0.296572
v -0.090558 0.825895 0.329341
v -0.104757 0.959032 0.274520
v 0.261585 0.862848 -0.505078
v 0.303573 0.935415 -0.453983
v 0.198890 0.977895 -0.494024
v 0.178473 0.986737 -0.440242
v 0.282523 0.936179 -0.400700
v 0.525330 0.954928 0.129483
v 0.540229 0.959532 0.047514
v 0.476951 0.935359 0.093336
v 0.486693 0.951215 0.026633
v 0.443173 0.969872 0.146621
v 0.389601 0.938935 0.314607
v 0.351138 0.934736 0.270021
v 0.141340 0.365376 0.476649
v 0.375014 0.215057 0.475902
v 0.478587 0.146457 0.366496
v 0.431800 0.458265 0.347146
v 0.650911 -0.052457 -0.129693
v 0.596750 0.457051 -0.139013
v 0.651307 0.287968 -0.198126
v 0.552493 0.323436 -0.403322
v 0.482471 0.481494 -0.375091
v 0.664906 0.204205 -0.509234
v 0.440656 0.316973 -0.518699
v 0.304647 0.120562 -0.576179
v 0.517893 0.178455 -0.605550
v 0.285625 0.464938 -0.521792
v -0.353730 0.395066 -0.422421
v -0.222847 0.172306 -0.503715
v -0.264115 0.504838 -0.462499
v -0.323358 0.271363 -0.494436
v -0.439339 0.464516 -0.262072
v -0.529984 0.372563 -0.091897
v -0.511111 0.225237 0.124800
v -0.646812 0.170122 -0.067900
v -0.447517 0.514933 -0.006905
v -0.168879 0.310012 0.513055
v -0.348830 -0.046549 0.371294
v -0.367773 0.329939 0.277905
v -0.169707 0.454605 0.439329
v -0.085265 0.232151 0.609769
v -1.154521 0.095909 -0.654431
v -0.824793 -0.038112 -0.581746
v -1.159971 -0.002666 -0.659490
v -1.198888 0.102926 -0.542676
v -0.862548 0.159355 -0.418117
v -1.202214 -0.010546 -0.553916
v -0.950375 -0.034224 -0.283029
v -1.239826 -0.001191 -0.450606
v -1.230824 0.100328 -0.447276
v 0.871612 0.060511 -0.765169
v 0.866604 -0.001862 -0.780603
v 0.922795 -0.025533 -0.739166
v 0.915107 0.078639 -0.731435
v 0.964842 -0.022030 -0.641415
v 0.958340 0.055938 -0.659982
v 0.201922 0.035956 1.125525
v 0.192221 -0.081357 1.127757
v 0.286576 0.047535 1.142787
v 0.294714 -0.079971 1.147453
v 0.396909 -0.083115 1.102575
v 0.377476 0.036012 1.107550
v -0.699376 0.123793 -0.136996
v -0.839073 0.139392 -0.230021
v -0.540919 0.307091 -0.365739
v -0.706842 0.206715 -0.385813
v -0.727088 0.161286 -0.548651
v -0.429570 0.148290 -0.543107
v -0.352599 -0.007256 -0.548010
v 0.371120 -0.054426 0.790533
v 0.396830 -0.060013 0.606223
v 0.306282 0.098738 0.625678
v 0.356943 0.041267 0.817735
v 0.206771 0.086142 0.803893
v 0.141910 0.207061 0.605218
v 0.074134 0.054972 0.820890
v 0.085117 -0.067280 0.871201
v -0.095945 -0.075591 0.602763
v 0.616682 0.286660 0.132502
v 0.016489 0.263008 -0.578675
v 0.140457 0.806948 0.362137
v 0.353478 0.844073 0.270522
v 0.483330 0.861883 0.090976
v 0.498391 0.808558 -0.105126
v 0.417556 0.820613 -0.322448
v 0.239975 0.863811 -0.449721
v 0.026633 0.898769 -0.472198
v -0.174459 0.835960 -0.384604
v -0.317651 0.778490 -0.212606
v -0.353663 0.819068 -0.000600
v -0.263397 0.866638 0.196775
v 0.151367 0.903256 0.420483
v 0.546974 0.891523 -0.092447
v 0.462313 0.917067 -0.358743
v 0.017579 1.002610 -0.529106
v -0.209166 0.934530 -0.429022
v -0.369737 0.890400 -0.232852
v -0.387630 0.976261 0.002620
v -0.306513 0.973088 0.233076
v 0.139540 0.902512 0.363667
v 0.153005 -0.067709 0.552127
v 0.463183 -0.035831 0.416229
v 0.653000 -0.012917 0.148399
v 0.492820 0.895985 -0.090582
v 0.417556 0.917085 -0.322448
v 0.532608 -0.054119 -0.412891
v 0.311105 -0.047369 -0.575290
v 0.026633 1.007191 -0.472198
v 0.006149 -0.054720 -0.600954
v -0.174885 0.938009 -0.384695
v -0.214864 -0.036449 -0.511677
v -0.318785 0.888161 -0.212848
v -0.493868 -0.033626 -0.306829
v -0.331123 0.972520 -0.006549
v -0.663000 -0.001300 -0.049946
v -0.262283 0.969990 0.196768
vt 0.926046 0.839379
vt 0.846446 0.837728
vt 0.846775 0.836720
vt 0.909973 0.857077
vt 0.893056 0.866213
vt 0.894683 0.837664
vt 0.849239 0.884025
vt 0.835290 0.919477
vt 0.832711 0.881912
vt 0.838659 0.860051
vt 0.829839 0.847758
vt 0.853507 0.857824
vt 0.819800 0.846812
vt 0.825153 0.848795
vt 0.828105 0.837896
vt 0.823360 0.870079
vt 0.819280 0.841278
vt 0.891538 0.929081
vt 0.870953 0.916641
vt 0.846063 0.860701
vt 0.832512 0.850932
vt 0.832046 0.861553
vt 0.872640 0.921105
vt 0.854052 0.912164
vt 0.873713 0.913800
vt 0.891684 0.926261
vt 0.907809 0.926803
vt 0.894132 0.926529
vt 0.908915 0.919186
vt 0.903530 0.926480
vt 0.906750 0.923195
vt 0.913647 0.919380
vt 0.902611 0.923496
vt 0.866175 0.923338
vt 0.870955 0.916948
vt 0.852853 0.913346
vt 0.889047 0.929477
vt 0.875814 0.926944
vt 0.852853 0.921687
vt 0.850361 0.921685
vt 0.840007 0.922969
vt 0.835570 0.923099
vt 0.839686 0.915374
vt 0.831506 0.925357
vt 0.876707 0.881700
vt 0.876576 0.925166
vt 0.897049 0.871877
vt 0.960137 0.558630
vt 0.973741 0.531464
vt 0.990918 0.558396
vt 0.902574 0.914673
vt 0.876560 0.925314
vt 0.839604 0.919863
vt 0.839604 0.912304
vt 0.889047 0.920103
vt 0.854079 0.920427
vt 0.871849 0.923174
vt 0.851367 0.920491
vt 0.891773 0.917325
vt 0.905166 0.913212
vt 0.836474 0.924638
vt 0.866124 0.923272
vt 0.908816 0.909704
vt 0.835544 0.923339
vt 0.873758 0.917059
vt 0.826632 0.855303
vt 0.825803 0.837206
vt 0.830945 0.842595
vt 0.825090 0.840295
vt 0.869816 0.852819
vt 0.922033 0.841537
vt 0.928174 0.856050
vt 0.909766 0.839244
vt 0.912939 0.886917
vt 0.920526 0.882773
vt 0.961345 0.839760
vt 0.961146 0.839305
vt 0.916048 0.863661
vt 0.818847 0.840959
vt 0.990612 0.842133
vt 0.990049 0.850687
vt 0.990645 0.842165
vt 0.931953 0.841971
vt 0.952427 0.855835
vt 0.959166 0.856173
vt 0.945596 0.860268
vt 0.912222 0.886044
vt 0.810704 0.835538
vt 0.826249 0.835762
vt 0.843037 0.836470
vt 0.822868 0.846474
vt 0.818274 0.845877
vt 0.812228 0.845189
vt 0.817533 0.835763
vt 0.826322 0.839297
vt 0.850296 0.874152
vt 0.825647 0.845114
vt 0.845248 0.848087
vt 0.835255 0.850389
vt 0.930955 0.857142
vt 0.821974 0.837556
vt 0.864551 0.862586
vt 0.865786 0.836129
vt 0.951619 0.853712
vt 0.937297 0.853098
vt 0.931874 0.869256
vt 0.869267 0.838300
vt 0.830369 0.924443
vt 0.830993 0.882017
vt 0.989656 0.850500
vt 0.990607 0.842307
vt 0.990047 0.850670
vt 0.874360 0.869199
vt 0.894670 0.841782
vt 0.857057 0.869801
vt 0.830125 0.868050
vt 0.844459 0.870360
vt 0.869670 0.882594
vt 0.917993 0.865857
vt 0.922226 0.874607
vt 0.836277 0.926251
vt 0.834755 0.916914
vt 0.875799 0.927709
vt 0.984674 0.564820
vt 0.976502 0.566728
vt 0.967547 0.564543
vt 0.956852 0.550003
vt 0.959130 0.541714
vt 0.965001 0.534043
vt 0.982923 0.534069
vt 0.989806 0.540914
vt 0.992664 0.549625
vt 0.918218 0.876553
vn -0.0223 -0.9995 -0.0229
vn -0.3243 0.0767 -0.9428
vn 0.8961 0.1475 -0.4185
vn 0.1137 0.9027 -0.4150
vn 0.4543 0.8908 0.0081
vn 0.9926 0.1190 -0.0244
vn 0.1352 0.0661 -0.9886
vn 0.3489 0.6558 0.6694
vn 0.1423 -0.9889 0.0421
vn 0.1004 -0.3725 -0.9226
vn 0.0630 0.9980 -0.0084
vn -0.0001 0.9256 -0.3785
vn -0.0329 0.9805 0.1936
vn -0.2407 0.9643 0.1105
vn -0.6013 -0.1746 0.7797
vn 0.1540 0.9826 -0.1036
vn 0.0619 0.9952 0.0758
vn -0.8143 -0.0242 -0.5799
vn -0.3928 -0.0152 -0.9195
vn 0.9936 0.1126 -0.0023
vn -0.6943 0.2130 0.6874
vn -0.0487 0.9982 0.0350
vn 0.7662 0.0038 0.6426
vn 0.0452 0.9978 0.0491
vn -0.9330 -0.1161 0.3406
vn 0.3983 0.0000 0.9173
vn 0.1485 0.9879 -0.0439
vn 0.9124 -0.1488 -0.3814
vn 0.0599 0.9042 -0.4229
vn 0.1209 0.9921 0.0335
vn 0.9862 0.0106 0.1655
vn -0.1372 0.9902 0.0251
vn -0.2078 0.1891 0.9597
vn 0.7463 0.3568 0.5619
vn -0.1779 -0.9388 -0.2950
vn -0.2819 0.2517 -0.9258
vn 0.1729 0.1164 -0.9780
vn -0.1536 -0.9685 -0.1959
vn -0.9842 0.1652 -0.0642
vn 0.0624 -0.9973 0.0392
vn -0.9640 0.2512 0.0869
vn 0.0632 -0.9978 -0.0205
vn -0.9279 0.0701 -0.3661
vn -0.7011 -0.0767 0.7089
vn -0.2383 0.9427 -0.2334
vn -0.3345 0.0635 -0.9402
vn -0.0146 -0.9987 -0.0487
vn 0.1291 0.9916 0.0088
vn -0.1890 0.0239 0.9817
vn 0.8379 0.0766 0.5404
vn 0.4026 0.0275 0.9149
vn 0.3935 0.0882 0.9151
vn -0.9176 0.0780 0.3898
vn -0.1639 0.9751 0.1497
vn -0.8279 0.1352 0.5443
vn 0.0241 -0.9991 0.0336
vn 0.4903 0.8064 0.3307
vn 0.9608 0.1976 -0.1943
vn 0.1000 0.7981 0.5942
vn -0.8215 0.1523 0.5494
vn -0.0447 -0.9990 -0.0082
vn 0.0471 0.9606 -0.2738
vn -0.4749 0.4055 0.7811
vn -0.8301 0.1351 0.5410
vn -0.5212 0.8048 0.2839
vn 0.5780 0.0573 -0.8140
vn 0.0062 -0.0051 -1.0000
vn 0.8311 0.1935 0.5214
vn 0.9187 -0.0173 -0.3946
vn 0.6182 0.1035 -0.7792
vn 0.9843 0.1633 -0.0663
vn 0.7970 0.1102 0.5939
vn -0.4880 0.0468 0.8716
vn -0.1362 -0.9899 0.0401
vn -0.0742 -0.9971 -0.0182
vn 0.2332 0.0469 -0.9713
vn -0.1234 0.9859 -0.1135
vn -0.1666 0.9781 0.1246
vn -0.6322 0.1749 0.7548
vn -0.7526 0.1226 0.6470
vn 0.1110 0.2076 -0.9719
vn 0.9944 0.0198 0.1042
vn 0.0849 0.6283 0.7733
vn 0.2621 0.4030 0.8769
vn 0.8399 0.4310 -0.3299
vn 0.6340 0.7533 -0.1751
vn 0.4905 0.4990 -0.7145
vn 0.3458 0.6292 -0.6960
vn -0.3034 0.6528 -0.6941
vn -0.8198 0.5562 -0.1362
vn -0.8674 0.4908 -0.0827
vn 0.2227 0.9436 0.2448
vn 0.0459 0.8515 -0.5224
vn -0.2241 0.9550 0.1943
vn -0.9973 -0.0147 -0.0726
vn -0.7231 0.6247 -0.2946
vn 0.8709 0.4155 0.2623
vn -0.1262 -0.1389 0.9822
vn 0.0902 -0.3710 -0.9243
vn -0.9068 0.3651 -0.2109
vn 0.6955 0.4114 0.5892
vn -0.7814 0.1472 -0.6065
vn -0.3398 0.5846 -0.7367
vn -0.3730 0.0211 -0.9276
vn 0.9531 0.0553 -0.2977
vn 0.0100 0.8754 -0.4834
vn 0.3420 0.9110 -0.2303
vn 0.2131 0.2078 -0.9547
vn 0.1693 0.0516 -0.9842
vn 0.0050 -0.9915 -0.1298
vn -0.1638 -0.9864 0.0162
vn -0.1651 -0.9633 -0.2116
vn 0.0311 -0.9960 -0.0838
vn -0.3124 -0.9402 0.1360
vn 0.0943 -0.9954 -0.0184
vn 0.3031 0.0182 -0.9528
vn 0.0645 0.9979 -0.0094
vn 0.1690 0.9300 -0.3263
vn -0.2220 0.9703 0.0955
vn -0.3335 0.9425 -0.0228
vn -0.5014 0.0000 0.8652
vn 0.1541 0.9827 -0.1031
vn 0.0841 0.9945 0.0632
vn -0.8109 0.0973 -0.5771
vn -0.8068 -0.0511 -0.5886
vn -0.4060 0.0107 -0.9138
vn 0.9934 0.1146 -0.0078
vn 0.9737 0.1339 0.1845
vn -0.6577 0.2172 0.7213
vn -0.4555 0.1050 0.8840
vn 0.4956 0.7651 -0.4111
vn 0.0168 0.9125 0.4088
vn -0.4802 0.8364 -0.2643
vn 0.2671 0.9626 -0.0460
vn 0.0533 0.7495 0.6598
vn -0.6020 0.7591 -0.2476
vn -0.0395 0.9992 0.0108
vn 0.2190 0.9757 -0.0078
vn -0.0649 0.9978 0.0136
vn 0.7670 0.0093 0.6416
vn 0.0802 0.9967 0.0126
vn -0.9511 0.0000 0.3087
vn 0.3987 0.0025 0.9171
vn 0.1574 0.9174 -0.3655
vn 0.9471 -0.0102 -0.3208
vn 0.0302 0.8996 -0.4357
vn 0.0662 0.9945 0.0812
vn 0.9833 -0.1399 0.1160
vn -0.1432 0.9895 0.0169
vn -0.0887 0.1051 0.9905
vn -0.2238 0.3799 0.8975
vn 0.9436 0.0105 0.3309
vn 0.7781 0.2704 0.5670
vn 0.0440 -0.9939 -0.1013
vn -0.3453 -0.0182 -0.9383
vn -0.2400 0.4467 -0.8619
vn 0.1538 0.2457 -0.9571
vn 0.2641 0.0468 -0.9634
vn -0.9839 0.1303 -0.1223
vn -0.0045 -0.9938 -0.1113
vn -0.3144 0.9391 0.1389
vn -0.7637 0.1170 0.6349
vn -0.9365 0.1147 0.3312
vn 0.0757 -0.9971 0.0032
vn -0.9261 0.0640 -0.3717
vn 0.0619 0.1338 -0.9891
vn 0.0081 -0.9915 0.1301
vn -0.9448 0.0941 -0.3137
vn -0.7911 0.1095 0.6018
vn -0.3243 0.0766 -0.9428
vn -0.4318 0.1248 -0.8933
vn 0.0000 -0.9975 0.0700
vn 0.2824 0.9583 0.0427
vn -0.2043 0.0355 0.9783
vn 0.8039 0.1283 0.5807
vn 0.3672 0.0574 0.9284
vn 0.0551 -0.9927 -0.1071
vn 0.3797 0.0956 0.9202
vn -0.9180 0.0833 0.3878
vn -0.2083 0.9669 0.1477
vn 0.1737 -0.9792 -0.1044
vn 0.2617 0.9414 0.2127
vn 0.8693 0.4827 0.1066
vn -0.1249 0.8289 0.5453
vn -0.7925 0.0136 0.6098
vn 0.0334 -0.9994 0.0084
vn -0.2853 0.6181 -0.7325
vn -0.1060 0.9424 0.3172
vn -0.7098 0.7009 0.0700
vn 0.0204 0.0416 -0.9989
vn 0.5924 0.0695 -0.8027
vn 0.5180 0.2714 -0.8112
vn 0.0821 0.0671 -0.9944
vn 0.8514 0.1024 0.5145
vn 0.8651 0.1003 -0.4915
vn 0.5642 0.1554 -0.8109
vn 0.9841 0.1648 -0.0667
vn 0.8238 0.1151 0.5551
vn 0.7349 0.1513 0.6610
vn -0.4996 0.0159 0.8661
vn -0.9361 0.0617 -0.3464
vn -0.0802 -0.9911 -0.1061
vn 0.2295 0.0372 -0.9726
vn -0.1234 0.9861 -0.1109
vn -0.1562 0.9874 -0.0254
vn -0.7176 0.0875 0.6909
vn -0.7110 0.3162 0.6281
vn -0.8917 0.3344 0.3050
vn -0.7715 0.4929 0.4023
vn 0.4550 0.5288 -0.7165
vn -0.4607 0.0526 -0.8860
vn 0.1253 0.1107 -0.9859
vn -0.2346 0.4191 -0.8771
vn 0.9566 0.2733 0.1013
vn 0.7639 0.1535 0.6269
vn 0.0234 0.4542 0.8906
vn -0.0574 0.7528 0.6557
vn 0.3782 0.5844 0.7179
vn 0.8408 0.3991 -0.3657
vn 0.6461 0.4021 -0.6488
vn 0.4166 0.7909 -0.4482
vn -0.7303 0.3919 -0.5596
vn -0.8657 0.0756 -0.4949
vn -0.8011 0.5885 -0.1087
vn -0.2280 0.9679 0.1055
vn -0.3658 0.9306 -0.0142
vn -0.9834 -0.0802 -0.1627
vn -0.9979 -0.0596 -0.0241
vn -0.7234 0.6251 -0.2933
vn 0.8440 0.4290 0.3220
vn -0.2059 0.0000 0.9786
vn 0.7123 0.6366 0.2956
vn 0.4423 -0.0048 -0.8968
vn 0.5455 -0.2687 -0.7938
vn -0.0152 -0.9988 0.0458
vn -0.0382 -0.9992 -0.0109
vn -0.7587 0.1672 -0.6296
vn -0.6748 0.0066 0.7380
usemtl Nature_Mat_01.005
s off
f 118/1/1 111/2/1 106/3/1
f 34/4/2 85/5/2 114/6/2
f 27/7/3 98/8/3 24/9/3
f 28/10/4 56/11/4 31/12/4
f 28/10/5 61/13/5 59/14/5
f 23/15/6 84/16/6 108/17/6
f 100/18/7 7/19/7 85/5/7
f 80/20/8 77/21/8 20/22/8
f 106/3/9 111/2/9 108/17/9
f 4/23/10 86/24/10 5/25/10
f 121/26/11 103/27/11 104/28/11
f 117/29/12 103/27/12 119/30/12
f 117/29/13 101/31/13 102/32/13
f 115/33/14 100/18/14 101/31/14
f 11/34/15 91/35/15 90/36/15
f 113/37/16 9/38/16 100/18/16
f 110/39/17 98/8/17 99/40/17
f 18/41/18 14/42/18 87/43/18
f 18/41/19 87/43/19 86/24/19
f 24/9/20 13/44/20 84/16/20
f 45/45/21 2/46/21 44/47/21
f 87/48/22 91/49/22 95/50/22
f 117/29/23 93/51/23 115/33/23
f 121/26/24 2/46/24 6/52/24
f 109/53/25 90/36/25 89/54/25
f 115/33/26 92/55/26 113/37/26
f 105/56/27 3/57/27 97/58/27
f 119/30/28 96/59/28 95/60/28
f 15/61/29 98/8/29 109/53/29
f 110/39/30 8/62/30 11/34/30
f 117/29/31 95/60/31 94/63/31
f 18/41/32 97/58/32 17/64/32
f 97/58/33 1/65/33 45/45/33
f 21/66/34 77/21/34 76/67/34
f 111/2/35 57/68/35 58/69/35
f 30/70/36 56/11/36 57/68/36
f 34/4/37 74/71/37 73/72/37
f 118/1/38 74/71/38 116/73/38
f 41/74/39 102/32/39 37/75/39
f 74/71/40 53/76/40 48/77/40
f 104/28/41 41/74/41 39/78/41
f 111/2/42 60/79/42 23/15/42
f 52/80/43 47/81/43 49/82/43
f 44/47/44 39/78/44 120/83/44
f 72/84/45 51/85/45 71/86/45
f 35/87/46 100/18/46 85/5/46
f 66/88/47 63/89/47 82/90/47
f 78/91/48 64/92/48 67/93/48
f 64/92/49 63/89/49 65/94/49
f 84/16/50 21/66/50 107/95/50
f 67/93/51 65/94/51 66/88/51
f 17/64/52 97/58/52 19/96/52
f 82/90/53 62/97/53 81/98/53
f 79/99/54 62/97/54 64/92/54
f 39/78/55 40/100/55 120/83/55
f 75/101/56 106/3/56 76/67/56
f 79/99/57 77/21/57 80/20/57
f 75/101/58 77/21/58 78/91/58
f 81/98/59 80/20/59 46/102/59
f 81/98/60 83/103/60 82/90/60
f 82/90/61 106/3/61 66/88/61
f 71/86/62 73/72/62 72/84/62
f 69/104/63 120/83/63 68/105/63
f 68/105/64 120/83/64 40/100/64
f 71/86/65 68/105/65 70/106/65
f 7/19/66 99/40/66 27/7/66
f 85/5/67 30/70/67 112/107/67
f 23/15/68 60/79/68 61/13/68
f 58/69/69 61/13/69 60/79/69
f 57/68/70 59/14/70 58/69/70
f 75/101/71 67/93/71 66/88/71
f 12/108/72 17/64/72 22/109/72
f 53/76/73 69/104/73 55/110/73
f 54/111/74 52/80/74 53/76/74
f 52/80/75 48/77/75 53/76/75
f 48/77/76 47/81/76 72/84/76
f 72/84/77 50/112/77 51/85/77
f 51/85/78 55/110/78 69/104/78
f 69/104/79 53/76/79 120/83/79
f 42/113/80 44/47/80 43/114/80
f 29/115/81 30/70/81 85/5/81
f 25/116/82 84/16/82 23/15/82
f 19/96/83 46/102/83 80/20/83
f 19/96/84 20/22/84 22/109/84
f 27/7/85 25/116/85 26/117/85
f 26/117/86 25/116/86 28/10/86
f 27/7/87 29/115/87 32/118/87
f 29/115/88 28/10/88 31/12/88
f 37/75/89 36/119/89 70/106/89
f 37/75/90 38/120/90 41/74/90
f 38/120/91 70/106/91 40/100/91
f 16/121/92 17/64/92 12/108/92
f 12/108/93 14/42/93 16/121/93
f 14/42/94 13/44/94 15/61/94
f 15/61/95 89/54/95 88/122/95
f 8/62/96 91/35/96 11/34/96
f 91/35/97 9/38/97 10/123/97
f 10/123/98 92/55/98 91/35/98
f 6/52/99 4/23/99 5/25/99
f 3/57/100 4/23/100 1/65/100
f 4/23/101 2/46/101 1/65/101
f 102/32/102 101/31/102 35/87/102
f 70/106/103 36/119/103 73/72/103
f 114/6/104 116/73/104 34/4/104
f 27/7/105 99/40/105 98/8/105
f 28/10/106 59/14/106 56/11/106
f 28/10/107 25/116/107 61/13/107
f 100/18/108 9/38/108 7/19/108
f 7/19/109 32/118/109 85/5/109
f 106/3/110 83/103/110 43/114/110
f 43/114/111 120/83/111 118/1/111
f 118/1/112 116/73/112 114/6/112
f 114/6/113 112/107/113 111/2/113
f 111/2/114 23/15/114 108/17/114
f 108/17/115 107/95/115 106/3/115
f 4/23/116 105/56/116 86/24/116
f 121/26/117 119/30/117 103/27/117
f 117/29/118 102/32/118 103/27/118
f 117/29/119 115/33/119 101/31/119
f 115/33/120 113/37/120 100/18/120
f 90/36/121 110/39/121 11/34/121
f 113/37/122 10/123/122 9/38/122
f 110/39/123 109/53/123 98/8/123
f 18/41/124 16/121/124 14/42/124
f 14/42/125 88/122/125 87/43/125
f 86/24/126 105/56/126 18/41/126
f 24/9/127 98/8/127 13/44/127
f 13/44/128 12/108/128 84/16/128
f 45/45/129 1/65/129 2/46/129
f 2/46/130 104/28/130 44/47/130
f 95/50/131 96/124/131 5/125/131
f 5/125/132 86/126/132 87/48/132
f 87/48/133 88/127/133 89/128/133
f 89/128/134 90/129/134 91/49/134
f 91/49/135 92/130/135 93/131/135
f 93/131/136 94/132/136 95/50/136
f 95/50/137 5/125/137 87/48/137
f 87/48/138 89/128/138 91/49/138
f 91/49/139 93/131/139 95/50/139
f 117/29/140 94/63/140 93/51/140
f 121/26/141 104/28/141 2/46/141
f 109/53/142 110/39/142 90/36/142
f 115/33/143 93/51/143 92/55/143
f 105/56/144 4/23/144 3/57/144
f 119/30/145 121/26/145 96/59/145
f 15/61/146 13/44/146 98/8/146
f 110/39/147 99/40/147 8/62/147
f 117/29/148 119/30/148 95/60/148
f 18/41/149 105/56/149 97/58/149
f 45/45/150 19/96/150 97/58/150
f 97/58/151 3/57/151 1/65/151
f 76/67/152 107/95/152 21/66/152
f 21/66/153 20/22/153 77/21/153
f 111/2/154 112/107/154 57/68/154
f 57/68/155 112/107/155 30/70/155
f 30/70/156 31/12/156 56/11/156
f 73/72/157 36/119/157 34/4/157
f 34/4/158 116/73/158 74/71/158
f 41/74/159 103/27/159 102/32/159
f 74/71/160 118/1/160 53/76/160
f 71/86/161 51/85/161 69/104/161
f 39/78/162 44/47/162 104/28/162
f 104/28/163 103/27/163 41/74/163
f 111/2/164 58/69/164 60/79/164
f 52/80/165 50/112/165 47/81/165
f 74/71/166 48/77/166 72/84/166
f 118/1/167 120/83/167 53/76/167
f 55/110/168 50/112/168 54/111/168
f 120/83/169 43/114/169 44/47/169
f 85/5/170 34/4/170 35/87/170
f 35/87/171 101/31/171 100/18/171
f 66/88/172 65/94/172 63/89/172
f 78/91/173 79/99/173 64/92/173
f 64/92/174 62/97/174 63/89/174
f 107/95/175 108/17/175 84/16/175
f 67/93/176 64/92/176 65/94/176
f 106/3/177 107/95/177 76/67/177
f 19/96/178 22/109/178 17/64/178
f 82/90/179 63/89/179 62/97/179
f 79/99/180 81/98/180 62/97/180
f 75/101/181 66/88/181 106/3/181
f 79/99/182 78/91/182 77/21/182
f 75/101/183 76/67/183 77/21/183
f 81/98/184 79/99/184 80/20/184
f 81/98/185 46/102/185 83/103/185
f 82/90/186 83/103/186 106/3/186
f 71/86/187 70/106/187 73/72/187
f 71/86/188 69/104/188 68/105/188
f 70/106/189 68/105/189 40/100/189
f 74/71/190 72/84/190 73/72/190
f 27/7/191 32/118/191 7/19/191
f 7/19/192 8/62/192 99/40/192
f 112/107/193 114/6/193 85/5/193
f 61/13/194 25/116/194 23/15/194
f 58/69/195 59/14/195 61/13/195
f 57/68/196 56/11/196 59/14/196
f 75/101/197 78/91/197 67/93/197
f 21/66/198 84/16/198 12/108/198
f 22/109/199 21/66/199 12/108/199
f 54/111/200 53/76/200 55/110/200
f 52/80/201 54/111/201 50/112/201
f 49/82/202 48/77/202 52/80/202
f 48/77/203 49/82/203 47/81/203
f 50/112/204 72/84/204 47/81/204
f 51/85/205 50/112/205 55/110/205
f 43/114/206 46/102/206 42/113/206
f 42/113/207 45/45/207 44/47/207
f 39/78/208 41/74/208 38/120/208
f 38/120/209 40/100/209 39/78/209
f 34/4/210 36/119/210 33/133/210
f 33/133/211 35/87/211 34/4/211
f 85/5/212 32/118/212 29/115/212
f 29/115/213 31/12/213 30/70/213
f 25/116/214 24/9/214 84/16/214
f 21/66/215 22/109/215 20/22/215
f 45/45/216 42/113/216 19/96/216
f 19/96/217 42/113/217 46/102/217
f 19/96/218 80/20/218 20/22/218
f 27/7/219 24/9/219 25/116/219
f 27/7/220 26/117/220 29/115/220
f 29/115/221 26/117/221 28/10/221
f 37/75/222 35/87/222 33/133/222
f 37/75/223 33/133/223 36/119/223
f 38/120/224 37/75/224 70/106/224
f 16/121/225 18/41/225 17/64/225
f 14/42/226 12/108/226 13/44/226
f 88/122/227 14/42/227 15/61/227
f 15/61/228 109/53/228 89/54/228
f 8/62/229 7/19/229 91/35/229
f 91/35/230 7/19/230 9/38/230
f 10/123/231 113/37/231 92/55/231
f 4/23/232 6/52/232 2/46/232
f 96/59/233 121/26/233 6/52/233
f 96/59/234 6/52/234 5/25/234
f 111/2/235 118/1/235 114/6/235
f 118/1/236 106/3/236 43/114/236
f 102/32/237 35/87/237 37/75/237
f 43/114/238 83/103/238 46/102/238
